<svg width="99" height="34" viewBox="0 0 99 34" fill="none" xmlns="http://www.w3.org/2000/svg">
<path d="M28.2536 27.9402C27.9278 27.9402 27.6475 27.8711 27.4127 27.7331C27.1794 27.5936 26.9999 27.4003 26.8742 27.1531C26.7499 26.906 26.6878 26.6215 26.6878 26.2998C26.6878 25.9739 26.7506 25.6881 26.8763 25.4423C27.0033 25.1951 27.1835 25.0025 27.4169 24.8644C27.6502 24.725 27.9278 24.6552 28.2495 24.6552C28.527 24.6552 28.77 24.7056 28.9786 24.8064C29.1871 24.9072 29.3521 25.0488 29.4736 25.231C29.5951 25.4133 29.6621 25.6273 29.6745 25.8731H28.8419C28.8184 25.7143 28.7562 25.5866 28.6554 25.4899C28.556 25.3919 28.4255 25.3429 28.264 25.3429C28.1273 25.3429 28.0078 25.3802 27.9057 25.4547C27.8049 25.5279 27.7262 25.6349 27.6695 25.7758C27.6129 25.9166 27.5846 26.0871 27.5846 26.2874C27.5846 26.4903 27.6122 26.6629 27.6675 26.8052C27.7241 26.9474 27.8035 27.0558 27.9057 27.1303C28.0078 27.2049 28.1273 27.2422 28.264 27.2422C28.3648 27.2422 28.4552 27.2215 28.5353 27.1801C28.6168 27.1386 28.6837 27.0786 28.7362 26.9999C28.7901 26.9198 28.8253 26.8238 28.8419 26.712H29.6745C29.6607 26.955 29.5944 27.169 29.4756 27.354C29.3583 27.5377 29.196 27.6813 28.9889 27.7848C28.7818 27.8884 28.5367 27.9402 28.2536 27.9402ZM31.1217 26.0388V27.8781H30.2394V23.6362H31.0969V25.258H31.1342C31.206 25.0702 31.322 24.9231 31.4821 24.8168C31.6423 24.7091 31.8432 24.6552 32.0849 24.6552C32.3058 24.6552 32.4984 24.7036 32.6627 24.8002C32.8284 24.8955 32.9568 25.0329 33.048 25.2124C33.1405 25.3905 33.1861 25.6039 33.1847 25.8524V27.8781H32.3023V26.0098C32.3037 25.8137 32.254 25.6612 32.1532 25.5521C32.0538 25.443 31.9143 25.3885 31.7348 25.3885C31.6147 25.3885 31.5084 25.414 31.4159 25.4651C31.3247 25.5162 31.2529 25.5907 31.2004 25.6888C31.1494 25.7854 31.1231 25.9021 31.1217 26.0388ZM34.7862 27.9381C34.5833 27.9381 34.4024 27.9029 34.2436 27.8325C34.0848 27.7607 33.9591 27.6551 33.8666 27.5156C33.7755 27.3747 33.7299 27.1994 33.7299 26.9895C33.7299 26.8128 33.7624 26.6643 33.8273 26.5442C33.8922 26.4241 33.9805 26.3274 34.0924 26.2542C34.2042 26.181 34.3313 26.1258 34.4735 26.0885C34.6171 26.0512 34.7676 26.025 34.925 26.0098C35.11 25.9905 35.2592 25.9725 35.3724 25.956C35.4856 25.938 35.5678 25.9118 35.6189 25.8773C35.67 25.8427 35.6955 25.7916 35.6955 25.724V25.7116C35.6955 25.5804 35.6541 25.4789 35.5712 25.4071C35.4898 25.3353 35.3738 25.2994 35.2233 25.2994C35.0645 25.2994 34.9381 25.3346 34.8442 25.405C34.7503 25.4741 34.6882 25.5611 34.6578 25.666L33.8418 25.5997C33.8832 25.4064 33.9647 25.2393 34.0862 25.0985C34.2077 24.9563 34.3644 24.8472 34.5563 24.7712C34.7496 24.6939 34.9733 24.6552 35.2274 24.6552C35.4042 24.6552 35.5733 24.676 35.7349 24.7174C35.8978 24.7588 36.0421 24.823 36.1677 24.91C36.2948 24.997 36.3949 25.1088 36.4681 25.2455C36.5413 25.3809 36.5778 25.5431 36.5778 25.7323V27.8781H35.7411V27.4369H35.7162C35.6651 27.5363 35.5968 27.624 35.5112 27.6999C35.4256 27.7745 35.3227 27.8332 35.2026 27.876C35.0824 27.9174 34.9437 27.9381 34.7862 27.9381ZM35.0389 27.3292C35.1687 27.3292 35.2833 27.3036 35.3828 27.2525C35.4822 27.2001 35.5602 27.1297 35.6168 27.0413C35.6734 26.9529 35.7017 26.8528 35.7017 26.741V26.4033C35.6741 26.4213 35.6361 26.4379 35.5878 26.4531C35.5409 26.4669 35.4877 26.48 35.4283 26.4924C35.3689 26.5035 35.3096 26.5138 35.2502 26.5235C35.1908 26.5318 35.137 26.5394 35.0886 26.5463C34.9851 26.5614 34.8946 26.5856 34.8173 26.6188C34.74 26.6519 34.6799 26.6968 34.6371 26.7534C34.5943 26.8086 34.5729 26.8777 34.5729 26.9605C34.5729 27.0806 34.6164 27.1725 34.7034 27.236C34.7918 27.2981 34.9036 27.3292 35.0389 27.3292ZM38.1447 26.0388V27.8781H37.2624V24.6967H38.1033V25.258H38.1406C38.211 25.0729 38.3291 24.9266 38.4948 24.8189C38.6604 24.7098 38.8614 24.6552 39.0975 24.6552C39.3184 24.6552 39.511 24.7036 39.6753 24.8002C39.8397 24.8969 39.9674 25.035 40.0585 25.2145C40.1497 25.3926 40.1952 25.6052 40.1952 25.8524V27.8781H39.3129V26.0098C39.3143 25.8151 39.2646 25.6632 39.1638 25.5541C39.063 25.4437 38.9242 25.3885 38.7474 25.3885C38.6287 25.3885 38.5237 25.414 38.4326 25.4651C38.3429 25.5162 38.2724 25.5907 38.2214 25.6888C38.1716 25.7854 38.1461 25.9021 38.1447 26.0388ZM42.3239 29.1374C42.0381 29.1374 41.793 29.098 41.5886 29.0193C41.3857 28.942 41.2241 28.8363 41.104 28.7024C40.9838 28.5685 40.9058 28.4179 40.8699 28.2509L41.686 28.1411C41.7108 28.2046 41.7502 28.264 41.804 28.3192C41.8579 28.3745 41.929 28.4186 42.0174 28.4518C42.1071 28.4863 42.2162 28.5036 42.3446 28.5036C42.5366 28.5036 42.6947 28.4566 42.8189 28.3627C42.9446 28.2702 43.0074 28.1149 43.0074 27.8967V27.3147H42.9701C42.9315 27.4031 42.8735 27.4866 42.7961 27.5653C42.7188 27.644 42.6194 27.7082 42.4979 27.7579C42.3764 27.8076 42.2314 27.8325 42.0629 27.8325C41.8241 27.8325 41.6066 27.7773 41.4105 27.6668C41.2158 27.5549 41.0605 27.3844 40.9445 27.1552C40.8299 26.9246 40.7726 26.6333 40.7726 26.2811C40.7726 25.9208 40.8313 25.6197 40.9486 25.3781C41.066 25.1365 41.222 24.9556 41.4167 24.8354C41.6128 24.7153 41.8275 24.6552 42.0609 24.6552C42.239 24.6552 42.3881 24.6856 42.5083 24.7464C42.6284 24.8057 42.725 24.8803 42.7982 24.9701C42.8728 25.0584 42.9301 25.1454 42.9701 25.231H43.0033V24.6967H43.8794V27.9091C43.8794 28.1798 43.8131 28.4062 43.6806 28.5885C43.548 28.7707 43.3644 28.9074 43.1296 28.9986C42.8963 29.0911 42.6277 29.1374 42.3239 29.1374ZM42.3426 27.1697C42.4848 27.1697 42.6049 27.1345 42.7029 27.0641C42.8024 26.9923 42.8783 26.8901 42.9308 26.7575C42.9846 26.6236 43.0116 26.4634 43.0116 26.277C43.0116 26.0906 42.9853 25.929 42.9329 25.7923C42.8804 25.6543 42.8044 25.5472 42.705 25.4713C42.6056 25.3954 42.4848 25.3574 42.3426 25.3574C42.1976 25.3574 42.0754 25.3967 41.9759 25.4754C41.8765 25.5528 41.8013 25.6605 41.7502 25.7986C41.6991 25.9366 41.6736 26.0961 41.6736 26.277C41.6736 26.4606 41.6991 26.6194 41.7502 26.7534C41.8027 26.8859 41.8779 26.9888 41.9759 27.062C42.0754 27.1338 42.1976 27.1697 42.3426 27.1697ZM46.0314 27.9402C45.7041 27.9402 45.4225 27.8739 45.1863 27.7414C44.9516 27.6074 44.7707 27.4182 44.6437 27.1738C44.5166 26.9281 44.4531 26.6374 44.4531 26.3019C44.4531 25.9746 44.5166 25.6874 44.6437 25.4402C44.7707 25.1931 44.9495 25.0004 45.1801 24.8624C45.4121 24.7243 45.6841 24.6552 45.9962 24.6552C46.2061 24.6552 46.4014 24.6891 46.5823 24.7567C46.7646 24.823 46.9234 24.9231 47.0587 25.0571C47.1954 25.191 47.3017 25.3595 47.3777 25.5624C47.4536 25.764 47.4916 26.0001 47.4916 26.2708V26.5131H44.8052V25.9663H46.661C46.661 25.8393 46.6334 25.7267 46.5782 25.6287C46.523 25.5307 46.4463 25.454 46.3483 25.3988C46.2516 25.3422 46.1391 25.3139 46.0107 25.3139C45.8767 25.3139 45.758 25.345 45.6544 25.4071C45.5522 25.4678 45.4722 25.55 45.4142 25.6536C45.3562 25.7557 45.3265 25.8697 45.3251 25.9953V26.5152C45.3251 26.6726 45.3541 26.8086 45.4121 26.9232C45.4715 27.0378 45.555 27.1262 45.6627 27.1883C45.7704 27.2505 45.8981 27.2815 46.0459 27.2815C46.1439 27.2815 46.2337 27.2677 46.3151 27.2401C46.3966 27.2125 46.4663 27.1711 46.5243 27.1158C46.5823 27.0606 46.6265 26.993 46.6569 26.9129L47.473 26.9667C47.4315 27.1628 47.3466 27.334 47.2182 27.4804C47.0912 27.6254 46.9268 27.7386 46.7252 27.8201C46.525 27.9001 46.2937 27.9402 46.0314 27.9402ZM50.718 27.9402C50.4253 27.9402 50.1726 27.8877 49.96 27.7828C49.7473 27.6778 49.5837 27.5356 49.4691 27.3561C49.3559 27.1752 49.2992 26.9736 49.2992 26.7513C49.2992 26.5856 49.3324 26.4386 49.3987 26.3101C49.4649 26.1817 49.5575 26.0637 49.6762 25.956C49.795 25.8469 49.933 25.7385 50.0905 25.6308L50.9127 25.0902C51.019 25.0225 51.0971 24.9514 51.1468 24.8769C51.1965 24.8009 51.2213 24.7188 51.2213 24.6304C51.2213 24.5462 51.1875 24.4681 51.1198 24.3963C51.0522 24.3245 50.9562 24.2893 50.8319 24.2907C50.7491 24.2907 50.6773 24.3093 50.6165 24.3466C50.5558 24.3825 50.5081 24.4302 50.4736 24.4895C50.4405 24.5475 50.4239 24.6124 50.4239 24.6842C50.4239 24.7726 50.4488 24.8624 50.4985 24.9535C50.5482 25.0446 50.6145 25.1413 50.6973 25.2435C50.7802 25.3443 50.8706 25.4533 50.9686 25.5707L52.9798 27.8781H52.0602L50.3825 26.0098C50.272 25.8842 50.1616 25.753 50.0511 25.6163C49.942 25.4782 49.8509 25.3318 49.7777 25.1772C49.7045 25.0212 49.6679 24.852 49.6679 24.6697C49.6679 24.464 49.7156 24.279 49.8108 24.1147C49.9075 23.9503 50.0428 23.8205 50.2168 23.7253C50.3908 23.6286 50.5938 23.5803 50.8257 23.5803C51.0522 23.5803 51.2476 23.6265 51.4119 23.7191C51.5776 23.8102 51.7046 23.9317 51.793 24.0836C51.8827 24.2341 51.9276 24.3998 51.9276 24.5807C51.9276 24.7809 51.8779 24.9625 51.7785 25.1254C51.6805 25.287 51.5424 25.4319 51.3643 25.5604L50.4985 26.1838C50.3811 26.2694 50.2941 26.3571 50.2375 26.4468C50.1823 26.5352 50.1547 26.6201 50.1547 26.7016C50.1547 26.8024 50.1795 26.8928 50.2292 26.9729C50.2789 27.053 50.3494 27.1165 50.4405 27.1635C50.5316 27.209 50.6386 27.2318 50.7615 27.2318C50.9107 27.2318 51.0577 27.198 51.2027 27.1303C51.3491 27.0613 51.4816 26.964 51.6004 26.8383C51.7205 26.7113 51.8165 26.5608 51.8883 26.3868C51.9601 26.2128 51.996 26.0202 51.996 25.8089H52.7271C52.7271 26.0685 52.6988 26.3025 52.6422 26.511C52.5856 26.7182 52.5069 26.8991 52.4061 27.0537C52.3053 27.207 52.19 27.3326 52.0602 27.4307C52.0188 27.4569 51.9787 27.4818 51.94 27.5052C51.9014 27.5287 51.8613 27.5536 51.8199 27.5798C51.6625 27.7068 51.4865 27.7987 51.2918 27.8553C51.0984 27.9119 50.9072 27.9402 50.718 27.9402ZM55.8697 27.9298C55.628 27.9298 55.4092 27.8677 55.2131 27.7434C55.0184 27.6178 54.8637 27.4334 54.7491 27.1904C54.6359 26.946 54.5793 26.6464 54.5793 26.2915C54.5793 25.927 54.638 25.6239 54.7553 25.3822C54.8727 25.1392 55.0287 24.9576 55.2234 24.8375C55.4195 24.716 55.6342 24.6552 55.8676 24.6552C56.0457 24.6552 56.1942 24.6856 56.3129 24.7464C56.433 24.8057 56.5297 24.8803 56.6029 24.9701C56.6774 25.0584 56.734 25.1454 56.7727 25.231H56.7996V23.6362H57.6799V27.8781H56.81V27.3685H56.7727C56.7313 27.4569 56.6726 27.5446 56.5967 27.6316C56.5221 27.7172 56.4247 27.7883 56.3046 27.8449C56.1859 27.9015 56.0409 27.9298 55.8697 27.9298ZM56.1493 27.2277C56.2915 27.2277 56.4116 27.189 56.5097 27.1117C56.6091 27.033 56.685 26.9232 56.7375 26.7824C56.7914 26.6415 56.8183 26.4765 56.8183 26.2874C56.8183 26.0982 56.792 25.9339 56.7396 25.7944C56.6871 25.6549 56.6112 25.5472 56.5117 25.4713C56.4123 25.3954 56.2915 25.3574 56.1493 25.3574C56.0043 25.3574 55.8821 25.3967 55.7827 25.4754C55.6833 25.5541 55.608 25.6632 55.5569 25.8027C55.5058 25.9422 55.4803 26.1037 55.4803 26.2874C55.4803 26.4724 55.5058 26.636 55.5569 26.7782C55.6094 26.9191 55.6846 27.0295 55.7827 27.1096C55.8821 27.1883 56.0043 27.2277 56.1493 27.2277ZM59.8552 27.9402C59.5279 27.9402 59.2463 27.8739 59.0101 27.7414C58.7754 27.6074 58.5945 27.4182 58.4675 27.1738C58.3405 26.9281 58.2769 26.6374 58.2769 26.3019C58.2769 25.9746 58.3405 25.6874 58.4675 25.4402C58.5945 25.1931 58.7733 25.0004 59.0039 24.8624C59.2359 24.7243 59.5079 24.6552 59.82 24.6552C60.0299 24.6552 60.2253 24.6891 60.4061 24.7567C60.5884 24.823 60.7472 24.9231 60.8825 25.0571C61.0192 25.191 61.1255 25.3595 61.2015 25.5624C61.2774 25.764 61.3154 26.0001 61.3154 26.2708V26.5131H58.629V25.9663H60.4848C60.4848 25.8393 60.4572 25.7267 60.402 25.6287C60.3468 25.5307 60.2701 25.454 60.1721 25.3988C60.0754 25.3422 59.9629 25.3139 59.8345 25.3139C59.7005 25.3139 59.5818 25.345 59.4782 25.4071C59.3761 25.4678 59.296 25.55 59.238 25.6536C59.18 25.7557 59.1503 25.8697 59.1489 25.9953V26.5152C59.1489 26.6726 59.1779 26.8086 59.2359 26.9232C59.2953 27.0378 59.3788 27.1262 59.4865 27.1883C59.5942 27.2505 59.722 27.2815 59.8697 27.2815C59.9677 27.2815 60.0575 27.2677 60.139 27.2401C60.2204 27.2125 60.2902 27.1711 60.3481 27.1158C60.4061 27.0606 60.4503 26.993 60.4807 26.9129L61.2968 26.9667C61.2553 27.1628 61.1704 27.334 61.042 27.4804C60.915 27.6254 60.7507 27.7386 60.5491 27.8201C60.3488 27.9001 60.1176 27.9402 59.8552 27.9402ZM64.7717 24.6967L63.6595 27.8781H62.6653L61.5531 24.6967H62.4851L63.1458 26.9729H63.179L63.8376 24.6967H64.7717ZM66.5706 27.9402C66.2433 27.9402 65.9617 27.8739 65.7255 27.7414C65.4908 27.6074 65.3099 27.4182 65.1829 27.1738C65.0559 26.9281 64.9923 26.6374 64.9923 26.3019C64.9923 25.9746 65.0559 25.6874 65.1829 25.4402C65.3099 25.1931 65.4887 25.0004 65.7193 24.8624C65.9513 24.7243 66.2233 24.6552 66.5354 24.6552C66.7453 24.6552 66.9407 24.6891 67.1215 24.7567C67.3038 24.823 67.4626 24.9231 67.5979 25.0571C67.7346 25.191 67.8409 25.3595 67.9169 25.5624C67.9928 25.764 68.0308 26.0001 68.0308 26.2708V26.5131H65.3444V25.9663H67.2002C67.2002 25.8393 67.1726 25.7267 67.1174 25.6287C67.0622 25.5307 66.9855 25.454 66.8875 25.3988C66.7908 25.3422 66.6783 25.3139 66.5499 25.3139C66.4159 25.3139 66.2972 25.345 66.1936 25.4071C66.0915 25.4678 66.0114 25.55 65.9534 25.6536C65.8954 25.7557 65.8657 25.8697 65.8643 25.9953V26.5152C65.8643 26.6726 65.8933 26.8086 65.9513 26.9232C66.0107 27.0378 66.0942 27.1262 66.2019 27.1883C66.3096 27.2505 66.4374 27.2815 66.5851 27.2815C66.6831 27.2815 66.7729 27.2677 66.8544 27.2401C66.9358 27.2125 67.0056 27.1711 67.0635 27.1158C67.1215 27.0606 67.1657 26.993 67.1961 26.9129L68.0122 26.9667C67.9707 27.1628 67.8858 27.334 67.7574 27.4804C67.6304 27.6254 67.4661 27.7386 67.2645 27.8201C67.0642 27.9001 66.833 27.9402 66.5706 27.9402ZM69.4889 23.6362V27.8781H68.6066V23.6362H69.4889ZM71.6332 27.9402C71.3114 27.9402 71.0332 27.8718 70.7985 27.7351C70.5651 27.5971 70.3849 27.4051 70.2579 27.1593C70.1308 26.9122 70.0673 26.6257 70.0673 26.2998C70.0673 25.9712 70.1308 25.6839 70.2579 25.4382C70.3849 25.191 70.5651 24.9991 70.7985 24.8624C71.0332 24.7243 71.3114 24.6552 71.6332 24.6552C71.9549 24.6552 72.2324 24.7243 72.4658 24.8624C72.7005 24.9991 72.8814 25.191 73.0085 25.4382C73.1355 25.6839 73.199 25.9712 73.199 26.2998C73.199 26.6257 73.1355 26.9122 73.0085 27.1593C72.8814 27.4051 72.7005 27.5971 72.4658 27.7351C72.2324 27.8718 71.9549 27.9402 71.6332 27.9402ZM71.6373 27.2567C71.7837 27.2567 71.9059 27.2153 72.0039 27.1324C72.102 27.0482 72.1758 26.9336 72.2255 26.7886C72.2766 26.6436 72.3022 26.4786 72.3022 26.2936C72.3022 26.1085 72.2766 25.9435 72.2255 25.7986C72.1758 25.6536 72.102 25.539 72.0039 25.4547C71.9059 25.3705 71.7837 25.3284 71.6373 25.3284C71.4896 25.3284 71.3653 25.3705 71.2645 25.4547C71.1651 25.539 71.0898 25.6536 71.0387 25.7986C70.989 25.9435 70.9642 26.1085 70.9642 26.2936C70.9642 26.4786 70.989 26.6436 71.0387 26.7886C71.0898 26.9336 71.1651 27.0482 71.2645 27.1324C71.3653 27.2153 71.4896 27.2567 71.6373 27.2567ZM73.7727 29.0711V24.6967H74.6426V25.231H74.682C74.7207 25.1454 74.7766 25.0584 74.8498 24.9701C74.9243 24.8803 75.021 24.8057 75.1397 24.7464C75.2599 24.6856 75.409 24.6552 75.5871 24.6552C75.8191 24.6552 76.0331 24.716 76.2292 24.8375C76.4253 24.9576 76.582 25.1392 76.6994 25.3822C76.8167 25.6239 76.8754 25.927 76.8754 26.2915C76.8754 26.6464 76.8181 26.946 76.7035 27.1904C76.5903 27.4334 76.4356 27.6178 76.2396 27.7434C76.0449 27.8677 75.8267 27.9298 75.585 27.9298C75.4138 27.9298 75.2682 27.9015 75.148 27.8449C75.0293 27.7883 74.9319 27.7172 74.856 27.6316C74.78 27.5446 74.722 27.4569 74.682 27.3685H74.6551V29.0711H73.7727ZM74.6364 26.2874C74.6364 26.4765 74.6627 26.6415 74.7151 26.7824C74.7676 26.9232 74.8436 27.033 74.943 27.1117C75.0424 27.189 75.1632 27.2277 75.3054 27.2277C75.449 27.2277 75.5705 27.1883 75.67 27.1096C75.7694 27.0295 75.8446 26.9191 75.8957 26.7782C75.9482 26.636 75.9744 26.4724 75.9744 26.2874C75.9744 26.1037 75.9489 25.9422 75.8978 25.8027C75.8467 25.6632 75.7715 25.5541 75.672 25.4754C75.5726 25.3967 75.4504 25.3574 75.3054 25.3574C75.1618 25.3574 75.0403 25.3954 74.9409 25.4713C74.8429 25.5472 74.7676 25.6549 74.7151 25.7944C74.6627 25.9339 74.6364 26.0982 74.6364 26.2874Z" fill="#FF222A"/>
<path d="M30.9677 10.814C33.6414 10.814 35.0615 12.7953 35.0615 15.2442C35.0615 15.4876 35.0057 16.0294 35.0057 16.0294H28.1072C28.2011 18.1046 29.6778 19.1511 31.3599 19.1511C32.9863 19.1511 34.1638 18.048 34.1638 18.048L34.9119 19.3751C34.9119 19.3751 33.5095 20.7208 31.2475 20.7208C28.2755 20.7208 26.2374 18.5712 26.2374 15.7666C26.2383 12.7581 28.2763 10.814 30.9677 10.814ZM33.2111 14.6651C33.1553 13.0388 32.1452 12.2535 30.9305 12.2535C29.5468 12.2535 28.4259 13.1132 28.1639 14.6651H33.2111Z" fill="white" stroke="white" stroke-width="1.26794" stroke-miterlimit="10"/>
<path d="M36.1645 11.0378H38.0901L40.3893 17.4317C40.5761 17.9549 40.6885 18.7216 40.7071 18.7216H40.7443C40.7629 18.7216 40.894 17.9549 41.0808 17.4317L43.38 11.0378H45.287L41.7908 20.4976H39.697L36.1645 11.0378Z" fill="white" stroke="white" stroke-width="1.26794" stroke-miterlimit="10"/>
<path d="M51.4382 10.814C54.2615 10.814 56.5421 12.8892 56.5421 15.7497C56.5421 18.6287 54.2615 20.7225 51.4382 20.7225C48.6157 20.7225 46.3343 18.6287 46.3343 15.7497C46.3351 12.8892 48.6157 10.814 51.4382 10.814ZM51.4382 19.152C53.2327 19.152 54.6909 17.731 54.6909 15.7497C54.6909 13.7869 53.2327 12.3845 51.4382 12.3845C49.6622 12.3845 48.1855 13.7869 48.1855 15.7497C48.1855 17.731 49.6622 19.152 51.4382 19.152Z" fill="white" stroke="white" stroke-width="1.26794" stroke-miterlimit="10"/>
<path d="M58.7667 7.29919H60.5798V17.6C60.5798 18.7403 61.0287 18.9457 61.5891 18.9457C61.7573 18.9457 61.9069 18.9271 61.9069 18.9271V20.5348C61.9069 20.5348 61.6263 20.572 61.3085 20.572C60.2806 20.572 58.7658 20.2914 58.7658 17.9178V7.29919H58.7667Z" fill="white" stroke="white" stroke-width="1.26794" stroke-miterlimit="10"/>
<path d="M65.0102 7.29919C65.5157 7.29919 65.9265 7.70916 65.9265 8.2155V8.23409C65.9265 8.73958 65.5165 9.15039 65.0102 9.15039C64.5047 9.15039 64.0939 8.74042 64.0939 8.23409V8.2155C64.0947 7.70916 64.5047 7.29919 65.0102 7.29919Z" fill="#FF222A" stroke="#FF222A" stroke-width="1.26794" stroke-miterlimit="10"/>
<path d="M64.1133 11.0378H65.9265V18.6835C65.9265 19.6852 65.115 20.4967 64.1133 20.4967V11.0378Z" fill="white" stroke="white" stroke-width="1.26794" stroke-miterlimit="10"/>
<path d="M68.2636 11.0378H70.0767V16.6836C70.0767 17.9921 70.3388 19.0394 71.8527 19.0394C73.7783 19.0394 74.9186 17.3378 74.9186 15.4689V11.0387H76.7318V20.4984H74.9744V19.2457C74.9744 18.8535 75.0116 18.5542 75.0116 18.5542H74.9744C74.5822 19.4891 73.348 20.7224 71.4968 20.7224C69.3658 20.7224 68.2627 19.6007 68.2627 17.0961V11.0378H68.2636Z" fill="white" stroke="white" stroke-width="1.26794" stroke-miterlimit="10"/>
<path d="M79.1993 11.038H80.9567V12.2907C80.9567 12.6643 80.9195 12.9821 80.9195 12.9821H80.9567C81.4056 11.879 82.7327 10.814 84.2094 10.814C85.7986 10.814 86.7335 11.5435 87.0513 12.9636H87.0885C87.6117 11.8232 88.9202 10.814 90.4536 10.814C92.5846 10.814 93.5753 12.0295 93.5753 14.4411V20.4985H91.7621V14.8342C91.7621 13.5071 91.5001 12.4598 90.08 12.4598C88.7529 12.4598 87.7622 13.5815 87.4258 14.8714C87.3319 15.2636 87.2947 15.6939 87.2947 16.1799V20.4985H85.4816V14.8342C85.4816 13.6001 85.2948 12.4598 83.8366 12.4598C82.4529 12.4598 81.4808 13.6001 81.1258 14.9458C81.0319 15.3194 81.0133 15.7497 81.0133 16.1799V20.4985H79.2002V11.038H79.1993Z" fill="white" stroke="white" stroke-width="1.26794" stroke-miterlimit="10"/>
<path d="M20.0252 29.3558H7.15217C6.08625 29.3558 5.22236 28.4919 5.22236 27.426V8.50061C5.22236 7.43469 6.08625 6.5708 7.15217 6.5708H20.0252C21.0911 6.5708 21.955 7.43469 21.955 8.50061V27.426C21.955 28.491 21.0911 29.3558 20.0252 29.3558Z" fill="#FF222A"/>
<mask id="mask0_83_342" style="mask-type:luminance" maskUnits="userSpaceOnUse" x="5" y="6" width="17" height="24">
<path d="M20.0252 29.3558H7.15217C6.08625 29.3558 5.22236 28.4919 5.22236 27.426V8.50061C5.22236 7.43469 6.08625 6.5708 7.15217 6.5708H20.0252C21.0911 6.5708 21.955 7.43469 21.955 8.50061V27.426C21.955 28.491 21.0911 29.3558 20.0252 29.3558Z" fill="white"/>
</mask>
<g mask="url(#mask0_83_342)">
<path d="M8.93153 25.214C9.38123 24.564 10.1978 23.5978 11.5959 22.9165C13.6018 21.9393 15.2256 22.318 16.6575 21.9114C18.3101 21.4423 20.2813 19.7661 21.1866 14.0848" fill="#FF222A"/>
<path d="M8.93153 25.214C9.38123 24.564 10.1978 23.5978 11.5959 22.9165C13.6018 21.9393 15.2256 22.318 16.6575 21.9114C18.3101 21.4423 20.2813 19.7661 21.1866 14.0848" stroke="white" stroke-width="1.01436" stroke-miterlimit="10"/>
<path d="M10.1175 23.9265C10.8859 23.5824 11.4218 23.6839 11.667 23.8225C12.049 24.0389 12.0609 24.4311 12.5114 24.7912C12.8901 25.0938 13.3288 25.1758 13.6365 25.1978" fill="#FF222A"/>
<path d="M10.1175 23.9265C10.8859 23.5824 11.4218 23.6839 11.667 23.8225C12.049 24.0389 12.0609 24.4311 12.5114 24.7912C12.8901 25.0938 13.3288 25.1758 13.6365 25.1978" stroke="white" stroke-width="1.01436" stroke-miterlimit="10"/>
<path d="M13.4994 22.3245C14.1224 22.3245 14.5679 22.0794 14.6997 21.6965C14.8434 21.2789 14.6397 20.912 14.6059 20.852C14.2424 20.437 14.174 19.8748 14.4182 19.4767C14.6321 19.1276 15.0099 19.0295 15.1063 19.0076" fill="#FF222A"/>
<path d="M13.4994 22.3245C14.1224 22.3245 14.5679 22.0794 14.6997 21.6965C14.8434 21.2789 14.6397 20.912 14.6059 20.852C14.2424 20.437 14.174 19.8748 14.4182 19.4767C14.6321 19.1276 15.0099 19.0295 15.1063 19.0076" stroke="white" stroke-width="1.01436" stroke-miterlimit="10"/>
<path d="M17.8611 21.3447C18.0623 21.2086 18.3269 20.9981 18.6963 20.9855C19.1595 20.9702 19.3793 21.1926 19.7639 21.2458C20.0919 21.2915 20.5635 21.2171 21.1874 20.6812" fill="#FF222A"/>
<path d="M17.8611 21.3447C18.0623 21.2086 18.3269 20.9981 18.6963 20.9855C19.1595 20.9702 19.3793 21.1926 19.7639 21.2458C20.0919 21.2915 20.5635 21.2171 21.1874 20.6812" stroke="white" stroke-width="1.01436" stroke-miterlimit="10"/>
<path d="M21.9373 14.5217C23.6118 14.5217 24.9693 13.1642 24.9693 11.4896C24.9693 9.81503 23.6118 8.45752 21.9373 8.45752C20.2627 8.45752 18.9052 9.81503 18.9052 11.4896C18.9052 13.1642 20.2627 14.5217 21.9373 14.5217Z" fill="#FF222A" stroke="white" stroke-width="1.01436" stroke-miterlimit="10"/>
<path d="M22.562 21.8995C23.598 21.8995 24.4378 21.0597 24.4378 20.0238C24.4378 18.9879 23.598 18.1481 22.562 18.1481C21.5261 18.1481 20.6863 18.9879 20.6863 20.0238C20.6863 21.0597 21.5261 21.8995 22.562 21.8995Z" fill="#FF222A" stroke="white" stroke-width="1.01436" stroke-miterlimit="10"/>
<path d="M15.9348 19.8672C16.6944 19.8672 17.3101 19.2514 17.3101 18.4919C17.3101 17.7323 16.6944 17.1166 15.9348 17.1166C15.1752 17.1166 14.5595 17.7323 14.5595 18.4919C14.5595 19.2514 15.1752 19.8672 15.9348 19.8672Z" fill="#FF222A" stroke="white" stroke-width="1.01436" stroke-miterlimit="10"/>
<path d="M14.4344 26.1513C15.0213 26.1513 15.497 25.6756 15.497 25.0888C15.497 24.502 15.0213 24.0262 14.4344 24.0262C13.8476 24.0262 13.3719 24.502 13.3719 25.0888C13.3719 25.6756 13.8476 26.1513 14.4344 26.1513Z" fill="#FF222A" stroke="white" stroke-width="1.01436" stroke-miterlimit="10"/>
</g>
</svg>
