<svg width="25" height="41" viewBox="0 0 25 41" fill="none" xmlns="http://www.w3.org/2000/svg">
<g id="Link &#226;&#134;&#146; SVG">
<path id="Vector" d="M20.544 11.5898H5.20146C4.84906 11.5898 4.51108 11.7298 4.2619 11.979C4.0127 12.2282 3.87271 12.5662 3.87271 12.9186V28.2611C3.87271 28.6135 4.0127 28.9515 4.2619 29.2007C4.51108 29.4499 4.84906 29.5898 5.20146 29.5898H20.544C20.8964 29.5898 21.2344 29.4499 21.4836 29.2007C21.7327 28.9515 21.8727 28.6135 21.8727 28.2611V12.9186C21.8727 12.5662 21.7327 12.2282 21.4836 11.979C21.2344 11.7298 20.8964 11.5898 20.544 11.5898ZM9.23773 26.9236H6.53146V18.3274H9.23773V26.9236ZM7.88269 17.1361C7.57573 17.1344 7.27615 17.0417 7.02175 16.8699C6.76738 16.6981 6.56959 16.4548 6.45337 16.1706C6.33715 15.8865 6.3077 15.5743 6.36874 15.2734C6.42977 14.9726 6.57856 14.6965 6.79633 14.4802C7.01407 14.2638 7.29109 14.1168 7.59229 14.0577C7.89355 13.9986 8.20555 14.03 8.48893 14.1481C8.77231 14.2661 9.01435 14.4655 9.18457 14.7209C9.35473 14.9764 9.44545 15.2766 9.44521 15.5836C9.44809 15.7891 9.40957 15.9931 9.33199 16.1834C9.25435 16.3738 9.13921 16.5465 8.99341 16.6914C8.84755 16.8362 8.67409 16.9503 8.48329 17.0267C8.29243 17.1031 8.08819 17.1403 7.88269 17.1361ZM19.2127 26.9311H16.5077V22.2349C16.5077 20.8498 15.919 20.4223 15.159 20.4223C14.3565 20.4223 13.569 21.0274 13.569 22.2698V26.9311H10.8627V18.3336H13.4652V19.5248H13.5002C13.7615 18.9961 14.6765 18.0923 16.0727 18.0923C17.5827 18.0923 19.2139 18.9886 19.2139 21.6136L19.2127 26.9311Z" fill="white"/>
</g>
</svg>
