<svg width="81" height="35" viewBox="0 0 81 35" fill="none" xmlns="http://www.w3.org/2000/svg">
<g id="OCASO GROUP 1" clip-path="url(#clip0_83_136)">
<path id="Vector" d="M80.5 0.343384H0.5V34.1304H80.5V0.343384Z" fill="black"/>
<g id="Group">
<g id="Group_2">
<path id="Vector_2" d="M20.8089 19.8392C19.6208 20.9802 18.1205 21.551 16.3095 21.551C14.4977 21.551 12.9945 20.9802 11.8008 19.8392C10.607 18.6983 10.0097 17.2395 10.0097 15.4627C10.0097 13.6866 10.607 12.2278 11.8008 11.0869C12.9945 9.94594 14.4977 9.37512 16.3095 9.37512C18.1205 9.37512 19.6208 9.94594 20.8089 11.0869C21.997 12.2278 22.5906 13.6866 22.5906 15.4627C22.5906 17.2395 21.997 18.6983 20.8089 19.8392ZM16.3087 18.869C17.2611 18.869 18.0319 18.5454 18.6206 17.8989C19.2086 17.2523 19.5022 16.4407 19.5022 15.4634C19.5022 14.4875 19.2086 13.6759 18.6206 13.0287C18.0319 12.3821 17.2618 12.0585 16.3087 12.0585C15.3443 12.0585 14.5677 12.3821 13.9797 13.0287C13.3918 13.6759 13.0974 14.4875 13.0974 15.4634C13.0974 16.44 13.3918 17.2516 13.9797 17.8989C14.5684 18.5454 15.3443 18.869 16.3087 18.869Z" fill="white"/>
<path id="Vector_3" d="M29.5606 21.5509C27.7366 21.5509 26.2192 20.9836 25.0083 19.8484C23.7966 18.7132 23.1908 17.2515 23.1908 15.4633C23.1908 13.6637 23.7938 12.1991 24.9997 11.0696C26.2056 9.94084 27.7259 9.37573 29.5613 9.37573C31.926 9.37573 33.637 10.4288 34.6958 12.5342L32.0846 13.7694C31.8846 13.2872 31.5524 12.8814 31.0873 12.552C30.6229 12.2227 30.1142 12.0577 29.5613 12.0577C28.6082 12.0577 27.8231 12.3834 27.2058 13.0364C26.5879 13.6901 26.2792 14.4981 26.2792 15.4626C26.2792 16.4271 26.5879 17.2358 27.2058 17.8888C27.8231 18.541 28.6082 18.8682 29.5613 18.8682C30.1142 18.8682 30.6229 18.7032 31.0873 18.3746C31.5524 18.0452 31.8846 17.6394 32.0846 17.1572L34.6958 18.3917C34.2486 19.2862 33.6042 20.0363 32.764 20.6421C31.9217 21.248 30.8537 21.5509 29.5606 21.5509Z" fill="white"/>
<path id="Vector_4" d="M47.311 21.3395H43.8704L43.2881 19.6449H38.6473L38.065 21.3395H34.6244L39.053 9.56946H42.8638L47.311 21.3395ZM42.4587 16.9987L40.9591 12.57L39.4596 16.9987H42.4587Z" fill="white"/>
<path id="Vector_5" d="M52.4985 21.551C50.3223 21.551 48.5813 20.9273 47.2753 19.6806L48.8813 17.4045C49.9158 18.4397 51.1689 18.9569 52.6399 18.9569C53.1571 18.9569 53.5658 18.8662 53.8659 18.6833C54.1659 18.5011 54.3159 18.2689 54.3159 17.9867C54.3159 17.7395 54.1509 17.5366 53.8216 17.378C53.4922 17.2194 53.0807 17.1016 52.5863 17.0251C52.0927 16.9487 51.5568 16.8251 50.981 16.655C50.4038 16.485 49.8694 16.2843 49.375 16.0549C48.8813 15.8256 48.4691 15.4577 48.1398 14.9519C47.8104 14.4461 47.6454 13.8409 47.6454 13.1344C47.6454 12.0992 48.0655 11.2176 48.9071 10.4875C49.7479 9.75803 50.8924 9.39368 52.3391 9.39368C54.2559 9.39368 55.8505 9.94092 57.1207 11.0347L55.4619 13.2051C54.4738 12.3935 53.3272 11.9877 52.0212 11.9877C51.1739 11.9877 50.7503 12.2699 50.7503 12.8343C50.7503 13.0579 50.9153 13.2494 51.2446 13.408C51.574 13.5666 51.9862 13.6873 52.4799 13.7702C52.9735 13.8524 53.5058 13.9788 54.0766 14.1496C54.6467 14.3196 55.179 14.5225 55.6733 14.7583C56.1677 14.994 56.5792 15.3584 56.9086 15.852C57.2379 16.3464 57.4022 16.9344 57.4022 17.6166C57.4022 18.8169 56.9729 19.7721 56.1141 20.4836C55.2568 21.1952 54.0516 21.551 52.4985 21.551Z" fill="white"/>
<path id="Vector_6" d="M60.0105 25.9382C59.8326 25.9318 59.6848 25.8718 59.5676 25.7567C59.4504 25.6417 59.3947 25.4938 59.4004 25.3131C59.4069 25.133 59.4726 24.9894 59.5976 24.883C59.7226 24.7765 59.8741 24.7265 60.0527 24.733C60.1734 24.7373 60.2749 24.7673 60.3556 24.8237C60.4363 24.8801 60.4985 24.9494 60.5406 25.033L60.2849 25.1552C60.2627 25.1123 60.2306 25.0759 60.1877 25.0459C60.1448 25.0159 60.097 25.0002 60.0434 24.998C59.9491 24.9952 59.8698 25.0245 59.8062 25.0873C59.7426 25.1495 59.7098 25.2295 59.7062 25.3245C59.7026 25.4195 59.7312 25.501 59.7898 25.5681C59.8491 25.6346 59.9255 25.6703 60.0198 25.6731C60.0613 25.6746 60.102 25.6689 60.1427 25.6567C60.1827 25.6439 60.2149 25.6289 60.2377 25.611L60.2413 25.5203L59.9791 25.511L59.9884 25.2474L60.5506 25.2666L60.5349 25.7296C60.3906 25.876 60.2163 25.9461 60.0105 25.9382Z" fill="white"/>
<path id="Vector_7" d="M62.6325 25.9346L62.2881 25.9225L62.1059 25.5245L61.9523 25.5188L61.9388 25.9103L61.638 25.8996L61.6787 24.7344L62.2624 24.7544C62.3881 24.7587 62.486 24.7987 62.5553 24.8751C62.6253 24.9508 62.6582 25.0444 62.6539 25.1566C62.6503 25.2495 62.6253 25.3245 62.5767 25.3816C62.5289 25.4395 62.4732 25.4774 62.4096 25.4974L62.6325 25.9346ZM62.1995 25.2645C62.2403 25.2659 62.2753 25.2559 62.3038 25.2352C62.3324 25.2138 62.3481 25.183 62.3496 25.1437C62.351 25.1052 62.3381 25.0752 62.3103 25.0516C62.2831 25.0287 62.2488 25.0166 62.2081 25.0151L61.9709 25.0073L61.9616 25.2566L62.1995 25.2645Z" fill="white"/>
<path id="Vector_8" d="M64.7436 25.7831C64.6221 25.8924 64.4714 25.9439 64.2921 25.9374C64.1127 25.931 63.9663 25.8696 63.852 25.7517C63.7377 25.6352 63.6834 25.4881 63.6898 25.3123C63.6962 25.1366 63.7598 24.9937 63.882 24.8851C64.0042 24.7765 64.1549 24.7251 64.3342 24.7308C64.5135 24.7372 64.66 24.7994 64.7736 24.9165C64.8872 25.033 64.9415 25.1801 64.935 25.3559C64.9293 25.5316 64.865 25.6738 64.7436 25.7831ZM64.3014 25.671C64.3957 25.6745 64.4728 25.6452 64.5335 25.5831C64.5943 25.5209 64.6257 25.4416 64.6293 25.3445C64.6328 25.248 64.6064 25.1673 64.5507 25.1008C64.495 25.0344 64.4199 24.9994 64.3249 24.9965C64.2299 24.993 64.1513 25.0223 64.0913 25.0844C64.0313 25.1466 63.9992 25.2259 63.9956 25.3223C63.992 25.4188 64.0184 25.5002 64.0749 25.5666C64.1306 25.6331 64.2063 25.6681 64.3014 25.671Z" fill="white"/>
<path id="Vector_9" d="M66.5539 25.9368C66.3725 25.9303 66.2367 25.8811 66.146 25.7875C66.056 25.6946 66.0138 25.5739 66.0188 25.4245L66.0431 24.7308L66.3489 24.7416L66.3246 25.4245C66.3217 25.496 66.341 25.5538 66.3825 25.5989C66.4232 25.6446 66.4832 25.6682 66.5625 25.6703C66.6411 25.6732 66.7018 25.6539 66.7461 25.611C66.7904 25.5688 66.8133 25.5124 66.8161 25.441L66.8404 24.7573L67.144 24.768L67.1197 25.4595C67.1147 25.6096 67.064 25.7282 66.9683 25.8146C66.8733 25.9032 66.7347 25.9432 66.5539 25.9368Z" fill="white"/>
<path id="Vector_10" d="M68.5493 25.911L68.2485 25.9003L68.2893 24.7344L68.8729 24.7551C68.9987 24.7594 69.0966 24.7994 69.1659 24.8765C69.2352 24.953 69.268 25.0466 69.2637 25.158C69.2602 25.2673 69.2209 25.3573 69.1458 25.4288C69.0715 25.5002 68.9715 25.5338 68.8451 25.5295L68.5622 25.5195L68.5493 25.911ZM68.8151 25.2652C68.8558 25.2666 68.8894 25.2566 68.9165 25.2352C68.9437 25.2138 68.958 25.1845 68.9594 25.1459C68.9608 25.1066 68.9487 25.0752 68.9237 25.0523C68.8979 25.0294 68.8651 25.0173 68.8244 25.0159L68.5815 25.008L68.5729 25.2573L68.8151 25.2652Z" fill="white"/>
<path id="Vector_11" d="M69.0322 19.8392C67.8434 20.9802 66.3439 21.551 64.5328 21.551C62.721 21.551 61.2179 20.9802 60.0241 19.8392C58.8303 18.6983 58.2331 17.2395 58.2331 15.4627C58.2331 13.6866 58.8303 12.2278 60.0241 11.0869C61.2179 9.94594 62.721 9.37512 64.5328 9.37512C66.3439 9.37512 67.8442 9.94594 69.0322 11.0869C70.2203 12.2278 70.814 13.6866 70.814 15.4627C70.814 17.2395 70.2203 18.6983 69.0322 19.8392ZM64.5321 18.869C65.4844 18.869 66.2553 18.5454 66.8432 17.8989C67.4312 17.2523 67.7256 16.4407 67.7256 15.4634C67.7256 14.4875 67.4319 13.6759 66.8432 13.0287C66.2553 12.3821 65.4844 12.0585 64.5321 12.0585C63.5676 12.0585 62.7911 12.3821 62.2031 13.0287C61.6151 13.6759 61.3208 14.4875 61.3208 15.4634C61.3208 16.44 61.6144 17.2516 62.2031 17.8989C62.7911 18.5454 63.5676 18.869 64.5321 18.869Z" fill="white"/>
</g>
<g id="Group_3">
<path id="Vector_12" d="M58.3802 15.1997C58.3802 11.9205 61.0471 9.25362 64.3256 9.25362C67.6041 9.25362 70.2703 11.9205 70.2703 15.1997C70.2703 18.4775 67.6041 21.1451 64.3256 21.1451C61.0479 21.1444 58.3802 18.4768 58.3802 15.1997ZM64.297 8.53491C60.6356 8.55063 57.6615 11.534 57.6615 15.1997C57.6615 18.874 60.6506 21.8638 64.3256 21.8638C68.0006 21.8638 70.9904 18.874 70.9904 15.1997C70.9904 11.534 68.017 8.55063 64.3549 8.53491H64.297Z" fill="white"/>
<g id="Clip path group">
<mask id="mask0_83_136" style="mask-type:luminance" maskUnits="userSpaceOnUse" x="57" y="8" width="14" height="14">
<g id="SVGID_00000123437171401710243600000005996119794013306045_">
<path id="Vector_13" d="M58.3802 15.1997C58.3802 11.9205 61.0471 9.25362 64.3256 9.25362C67.6041 9.25362 70.2703 11.9205 70.2703 15.1997C70.2703 18.4775 67.6041 21.1451 64.3256 21.1451C61.0479 21.1444 58.3802 18.4768 58.3802 15.1997ZM64.297 8.53491C60.6356 8.55063 57.6615 11.534 57.6615 15.1997C57.6615 18.874 60.6506 21.8638 64.3256 21.8638C68.0006 21.8638 70.9904 18.874 70.9904 15.1997C70.9904 11.534 68.017 8.55063 64.3549 8.53491H64.297Z" fill="white"/>
</g>
</mask>
<g mask="url(#mask0_83_136)">
<path id="Vector_14" d="M70.9904 8.53491H57.6615V21.8638H70.9904V8.53491Z" fill="white"/>
</g>
</g>
</g>
<g id="Group_4">
<path id="Vector_15" d="M60.5906 19.0819C59.5583 18.0603 58.9667 16.6457 58.9667 15.2026C58.9667 13.718 59.5969 12.2763 60.6942 11.2461C61.6501 10.3495 62.8503 9.86589 64.1027 9.86589C64.2063 9.86589 64.3113 9.86874 64.4149 9.87589C67.7498 10.0888 69.0701 13.0743 69.1865 15.5655V15.5662C69.2515 16.8901 68.8007 18.1346 67.9184 19.0698C66.9954 20.0478 65.7051 20.5929 64.2856 20.605H64.2277C62.8725 20.6043 61.5815 20.0635 60.5906 19.0819ZM64.0777 9.14575C62.651 9.15218 61.2872 9.70371 60.2027 10.7203C58.9603 11.8863 58.2473 13.5194 58.2473 15.2026C58.2473 16.8365 58.9167 18.4375 60.0841 19.5927C61.2122 20.7093 62.6839 21.3223 64.2349 21.3223H64.2927C65.9088 21.3087 67.3826 20.6829 68.4421 19.5627C69.4601 18.4839 69.9802 17.0522 69.9059 15.5305C69.7752 12.7436 68.2706 9.4008 64.4613 9.1579C64.3499 9.15075 64.2392 9.14647 64.1284 9.14575H64.0777Z" fill="white"/>
<g id="Clip path group_2">
<mask id="mask1_83_136" style="mask-type:luminance" maskUnits="userSpaceOnUse" x="58" y="9" width="12" height="13">
<g id="SVGID_00000067924948862576534130000007657440229121453712_">
<path id="Vector_16" d="M60.5906 19.0819C59.5583 18.0603 58.9667 16.6457 58.9667 15.2026C58.9667 13.718 59.5969 12.2763 60.6942 11.2461C61.6501 10.3495 62.8503 9.86589 64.1027 9.86589C64.2063 9.86589 64.3113 9.86874 64.4149 9.87589C67.7498 10.0888 69.0701 13.0743 69.1865 15.5655V15.5662C69.2515 16.8901 68.8007 18.1346 67.9184 19.0698C66.9954 20.0478 65.7051 20.5929 64.2856 20.605H64.2277C62.8725 20.6043 61.5815 20.0635 60.5906 19.0819ZM64.0777 9.14575C62.651 9.15218 61.2872 9.70371 60.2027 10.7203C58.9603 11.8863 58.2473 13.5194 58.2473 15.2026C58.2473 16.8365 58.9167 18.4375 60.0841 19.5927C61.2122 20.7093 62.6839 21.3223 64.2349 21.3223H64.2927C65.9088 21.3087 67.3826 20.6829 68.4421 19.5627C69.4601 18.4839 69.9802 17.0522 69.9059 15.5305C69.7752 12.7436 68.2706 9.4008 64.4613 9.1579C64.3499 9.15075 64.2392 9.14647 64.1284 9.14575H64.0777Z" fill="white"/>
</g>
</mask>
<g mask="url(#mask1_83_136)">
<path id="Vector_17" d="M69.9802 9.14575H58.2473V21.3223H69.9802V9.14575Z" fill="white"/>
</g>
</g>
</g>
<g id="Group_5">
<path id="Vector_18" d="M61.0607 18.7632C60.102 17.8259 59.5526 16.53 59.5526 15.2069C59.5526 13.8295 60.1898 12.4506 61.2565 11.5197C62.0516 10.8267 62.9989 10.4595 63.9727 10.4595C64.1484 10.4595 64.3256 10.4717 64.5021 10.496C67.3169 10.881 67.7984 13.1879 68.1056 15.937L68.1063 15.9384C68.2306 17.0229 67.9463 17.9967 67.2847 18.7547C66.5682 19.5734 65.4901 20.0385 64.2463 20.0628C64.2163 20.0642 64.1863 20.0642 64.1556 20.0642C63.0175 20.0635 61.9209 19.6055 61.0607 18.7632ZM60.7849 10.9775C59.5626 12.0434 58.8339 13.6244 58.8339 15.2069C58.8339 16.7221 59.4618 18.206 60.557 19.2783C61.5529 20.2514 62.8253 20.7836 64.1506 20.7836C64.1877 20.7836 64.2242 20.7829 64.2613 20.7822C65.7087 20.7536 66.974 20.2014 67.8255 19.2276C68.6128 18.3267 68.9665 17.1301 68.8193 15.857C68.5721 13.6344 68.197 10.2759 64.5992 9.78369C64.3885 9.7544 64.1777 9.74011 63.9684 9.74011C62.8232 9.74011 61.7115 10.1681 60.7849 10.9775Z" fill="white"/>
<g id="Clip path group_3">
<mask id="mask2_83_136" style="mask-type:luminance" maskUnits="userSpaceOnUse" x="58" y="9" width="11" height="12">
<g id="SVGID_00000113327598368324197090000009027204860487139247_">
<path id="Vector_19" d="M61.0607 18.7632C60.102 17.8259 59.5526 16.53 59.5526 15.2069C59.5526 13.8295 60.1898 12.4506 61.2565 11.5197C62.0516 10.8267 62.9989 10.4595 63.9727 10.4595C64.1484 10.4595 64.3256 10.4717 64.5021 10.496C67.3169 10.881 67.7984 13.1879 68.1056 15.937L68.1063 15.9384C68.2306 17.0229 67.9463 17.9967 67.2847 18.7547C66.5682 19.5734 65.4901 20.0385 64.2463 20.0628C64.2163 20.0642 64.1863 20.0642 64.1556 20.0642C63.0175 20.0635 61.9209 19.6055 61.0607 18.7632ZM60.7849 10.9775C59.5626 12.0434 58.8339 13.6244 58.8339 15.2069C58.8339 16.7221 59.4618 18.206 60.557 19.2783C61.5529 20.2514 62.8253 20.7836 64.1506 20.7836C64.1877 20.7836 64.2242 20.7829 64.2613 20.7822C65.7087 20.7536 66.974 20.2014 67.8255 19.2276C68.6128 18.3267 68.9665 17.1301 68.8193 15.857C68.5721 13.6344 68.197 10.2759 64.5992 9.78369C64.3885 9.7544 64.1777 9.74011 63.9684 9.74011C62.8232 9.74011 61.7115 10.1681 60.7849 10.9775Z" fill="white"/>
</g>
</mask>
<g mask="url(#mask2_83_136)">
<path id="Vector_20" d="M68.9671 9.73926H58.8338V20.7828H68.9671V9.73926Z" fill="white"/>
</g>
</g>
</g>
<g id="Group_6">
<path id="Vector_21" d="M61.5294 18.4454C60.6592 17.6074 60.1391 16.3979 60.1391 15.2105C60.1391 13.9624 60.7914 12.6329 61.8023 11.8206C62.4417 11.3069 63.1733 11.0397 63.9148 11.0397C64.1377 11.0397 64.3628 11.0647 64.5864 11.1133C66.6325 11.5648 66.7325 13.0337 66.8489 14.734C66.8847 15.2619 66.9225 15.8085 67.0268 16.3186V16.3193C67.2026 17.1594 67.0618 17.9024 66.6189 18.4675C66.1152 19.1105 65.2586 19.4842 64.2042 19.522C64.1606 19.5242 64.117 19.5249 64.0734 19.5249C63.1525 19.5242 62.2552 19.1434 61.5294 18.4454ZM61.3515 11.2598C60.1741 12.2064 59.4368 13.6959 59.4204 15.1591V15.2641C59.4361 16.6258 60.0355 18.0046 61.0314 18.9641C61.8923 19.7928 62.9689 20.2443 64.0763 20.2443C64.1284 20.2443 64.1799 20.2429 64.2313 20.2407C65.5001 20.1957 66.5489 19.7235 67.1854 18.9112C67.7634 18.1732 67.952 17.2259 67.7313 16.1721C67.6362 15.7099 67.6019 15.2112 67.5662 14.6847C67.4476 12.9472 67.3133 10.9783 64.7407 10.4103C64.4649 10.3496 64.1863 10.3196 63.9105 10.3196C63.0082 10.3196 62.1223 10.6418 61.3515 11.2598Z" fill="white"/>
<g id="Clip path group_4">
<mask id="mask3_83_136" style="mask-type:luminance" maskUnits="userSpaceOnUse" x="59" y="10" width="9" height="11">
<g id="SVGID_00000168084854063564646690000000588653672496175535_">
<path id="Vector_22" d="M61.5294 18.4454C60.6592 17.6074 60.1391 16.3979 60.1391 15.2105C60.1391 13.9624 60.7914 12.6329 61.8023 11.8206C62.4417 11.3069 63.1733 11.0397 63.9148 11.0397C64.1377 11.0397 64.3628 11.0647 64.5864 11.1133C66.6325 11.5648 66.7325 13.0337 66.8489 14.734C66.8847 15.2619 66.9225 15.8085 67.0268 16.3186V16.3193C67.2026 17.1594 67.0618 17.9024 66.6189 18.4675C66.1152 19.1105 65.2586 19.4842 64.2042 19.522C64.1606 19.5242 64.117 19.5249 64.0734 19.5249C63.1525 19.5242 62.2552 19.1434 61.5294 18.4454ZM61.3515 11.2598C60.1741 12.2064 59.4368 13.6959 59.4204 15.1591V15.2641C59.4361 16.6258 60.0355 18.0046 61.0314 18.9641C61.8923 19.7928 62.9689 20.2443 64.0763 20.2443C64.1284 20.2443 64.1799 20.2429 64.2313 20.2407C65.5001 20.1957 66.5489 19.7235 67.1854 18.9112C67.7634 18.1732 67.952 17.2259 67.7313 16.1721C67.6362 15.7099 67.6019 15.2112 67.5662 14.6847C67.4476 12.9472 67.3133 10.9783 64.7407 10.4103C64.4649 10.3496 64.1863 10.3196 63.9105 10.3196C63.0082 10.3196 62.1223 10.6418 61.3515 11.2598Z" fill="white"/>
</g>
</mask>
<g mask="url(#mask3_83_136)">
<path id="Vector_23" d="M67.952 10.3196H59.4204V20.2443H67.952V10.3196Z" fill="white"/>
</g>
</g>
</g>
<g id="Group_7">
<path id="Vector_24" d="M64.012 19.7056C63.1132 19.7056 62.2302 19.3362 61.5058 18.6525C60.5663 17.7673 60.0062 16.4821 60.0062 15.214C60.0062 13.8623 60.7671 12.3999 61.8987 11.5733C62.8118 10.9068 63.8719 10.7182 64.885 11.0425C67.0661 11.7398 66.8339 13.4137 66.6468 14.7582C66.5567 15.4069 66.4717 16.0199 66.6332 16.4742C67.0097 17.5316 66.7746 18.2274 66.511 18.6247C66.0874 19.2641 65.2894 19.6356 64.2034 19.6999C64.1406 19.7041 64.0763 19.7056 64.012 19.7056ZM63.9012 11.6048C63.2397 11.6048 62.6982 11.8805 62.3231 12.1542C61.3679 12.8521 60.7256 14.0817 60.7256 15.214C60.7256 16.2714 61.2136 17.388 61.9995 18.1288C62.6303 18.7232 63.399 19.0269 64.162 18.9819C65.0014 18.9326 65.623 18.6647 65.913 18.2274C66.1645 17.8481 66.1795 17.3394 65.9573 16.715C65.7359 16.0942 65.838 15.3648 65.9359 14.6589C66.1445 13.1593 66.1945 12.2149 64.6671 11.7262C64.3978 11.6412 64.1413 11.6048 63.9012 11.6048Z" fill="white"/>
<path id="Vector_25" d="M70.6089 21.3331C70.6089 21.4802 70.5567 21.6046 70.4539 21.7081C70.3503 21.8117 70.2252 21.8632 70.0788 21.8632C69.9316 21.8632 69.8073 21.811 69.703 21.7081C69.5994 21.6046 69.548 21.4802 69.548 21.3331C69.548 21.1859 69.5994 21.0616 69.703 20.958C69.8066 20.8544 69.9309 20.803 70.0788 20.803C70.2267 20.803 70.3524 20.8544 70.4546 20.9566C70.5574 21.0595 70.6089 21.1852 70.6089 21.3331ZM70.5239 21.3331C70.5239 21.2081 70.4803 21.103 70.3938 21.0166C70.3074 20.9301 70.2017 20.8873 70.0788 20.8873C69.9538 20.8873 69.848 20.9301 69.7609 21.0166C69.6744 21.1023 69.6308 21.2073 69.6308 21.3331C69.6308 21.4567 69.6744 21.5617 69.7623 21.6496C69.8502 21.7374 69.9552 21.781 70.0788 21.781C70.2017 21.781 70.3074 21.7374 70.3938 21.6496C70.4803 21.5624 70.5239 21.4567 70.5239 21.3331ZM70.331 21.6388H70.221L70.0638 21.3988H69.9638V21.6388H69.8737V21.0309H70.1209C70.1745 21.0309 70.2217 21.0487 70.2624 21.0837C70.3031 21.1188 70.3231 21.163 70.3231 21.2159C70.3231 21.2745 70.3045 21.3188 70.2667 21.3495C70.2295 21.3802 70.1967 21.3959 70.1681 21.3959L70.331 21.6388ZM70.231 21.2159C70.231 21.1845 70.2195 21.158 70.1974 21.1373C70.1752 21.1166 70.1495 21.1059 70.1209 21.1059H69.9638V21.3216H70.1209C70.1495 21.3216 70.1745 21.3116 70.1974 21.2916C70.2202 21.2709 70.231 21.2459 70.231 21.2159Z" fill="white"/>
</g>
</g>
</g>
<defs>
<clipPath id="clip0_83_136">
<rect width="80" height="33.787" fill="white" transform="translate(0.5 0.343384)"/>
</clipPath>
</defs>
</svg>
