<svg width="109" height="23" viewBox="0 0 109 23" fill="none" xmlns="http://www.w3.org/2000/svg">
<g id="image" clip-path="url(#clip0_41_29)">
<g id="Camada 2">
<g id="Camada 1">
<path id="Vector" d="M34.0359 8.76657C33.6293 9.49265 33.0128 10.079 32.2672 10.4487C31.3236 10.9075 30.2816 11.1275 29.233 11.0895H26.7403V16.7991H23.7573V1.92595H29.233C30.2451 1.89684 31.2504 2.10074 32.1711 2.5219C32.9297 2.87337 33.5649 3.44497 33.9942 4.16237C34.4054 4.88177 34.6156 5.69844 34.603 6.52694C34.6065 7.30945 34.4114 8.08005 34.0359 8.76657ZM30.9376 8.12576C31.1444 7.91596 31.3045 7.66473 31.4072 7.3886C31.5099 7.11247 31.553 6.81771 31.5335 6.52374C31.5335 5.07552 30.724 4.3514 29.1049 4.3514H26.7403V8.68006H29.1049C29.9187 8.68006 30.5296 8.48781 30.9376 8.10333V8.12576Z" fill="white"/>
<path id="Vector_2" d="M40.3317 1.03198V16.799H37.3488V1.03198H40.3317Z" fill="white"/>
<path id="Vector_3" d="M43.8593 7.67728C44.2893 6.80196 44.9551 6.06404 45.7817 5.5466C46.6076 5.04799 47.5565 4.7905 48.5212 4.80326C49.3235 4.78489 50.1177 4.96774 50.8313 5.33513C51.459 5.65718 52.0064 6.11594 52.4333 6.67762V4.9923H55.4355V16.7992H52.4333V15.0722C52.0176 15.6526 51.4681 16.1241 50.8313 16.4467C50.1111 16.819 49.3093 17.0052 48.4988 16.9882C47.5384 16.9988 46.5952 16.733 45.7817 16.2224C44.9545 15.6918 44.2893 14.9435 43.8593 14.0597C43.3677 13.0644 43.1227 11.9655 43.1448 10.8557C43.123 9.75409 43.3682 8.66358 43.8593 7.67728ZM52.0104 9.03259C51.7449 8.53439 51.3454 8.12041 50.8569 7.83748C50.3848 7.56436 49.8484 7.42171 49.303 7.42416C48.7546 7.41831 48.2151 7.56311 47.7433 7.84278C47.2716 8.12244 46.8856 8.52624 46.6276 9.01016C46.3252 9.57615 46.1751 10.211 46.1918 10.8525C46.1764 11.501 46.3263 12.1427 46.6276 12.7172C46.893 13.2219 47.2906 13.645 47.7778 13.9412C48.2372 14.221 48.765 14.3685 49.303 14.3673C49.8484 14.3698 50.3848 14.2271 50.8569 13.954C51.3454 13.6711 51.7449 13.2571 52.0104 12.7589C52.3056 12.1838 52.4511 11.5435 52.4333 10.8973C52.4516 10.2501 52.3061 9.60864 52.0104 9.03259Z" fill="white"/>
<path id="Vector_4" d="M68.947 6.15537C69.8121 7.04396 70.2457 8.28285 70.2478 9.87205V16.7992H67.2649V10.279C67.2649 9.34125 67.0299 8.62035 66.56 8.11624C66.3128 7.85926 66.0131 7.65867 65.6814 7.52817C65.3496 7.39767 64.9935 7.34033 64.6375 7.36009C64.2783 7.34013 63.919 7.39599 63.5828 7.52406C63.2466 7.65213 62.9412 7.84953 62.6863 8.10343C62.2121 8.60753 61.975 9.32844 61.975 10.2662V16.7992H58.992V4.99231H61.975V6.46296C62.3797 5.94727 62.9014 5.53539 63.4969 5.26145C64.1339 4.96534 64.829 4.81537 65.5315 4.82249C66.1621 4.79559 66.7914 4.9002 67.3794 5.12966C67.9674 5.35913 68.5013 5.70844 68.947 6.15537Z" fill="white"/>
<path id="Vector_5" d="M79.1326 7.44336H77.066V16.7991H74.0382V7.44336H72.6989V4.99227H74.0382V4.39632C74.0382 2.94809 74.4504 1.88008 75.2749 1.19228C76.0994 0.504482 77.3426 0.184078 79.0044 0.231071V2.75585C78.2803 2.75585 77.7741 2.86479 77.4921 3.11791C77.2102 3.37103 77.066 3.83561 77.066 4.50525V4.99227H79.1326V7.44336Z" fill="white"/>
<path id="Vector_6" d="M81.9104 3.08591C81.7402 2.92691 81.6056 2.73361 81.5156 2.51876C81.4256 2.30391 81.3821 2.07241 81.3882 1.83954C81.3828 1.60675 81.4265 1.37543 81.5164 1.16067C81.6064 0.945916 81.7407 0.752542 81.9104 0.593168C82.2705 0.271385 82.7364 0.0935059 83.2193 0.0935059C83.7022 0.0935059 84.1681 0.271385 84.5282 0.593168C84.6979 0.752542 84.8322 0.945916 84.9222 1.16067C85.0121 1.37543 85.0558 1.60675 85.0504 1.83954C85.0564 2.07241 85.013 2.30391 84.923 2.51876C84.833 2.73361 84.6984 2.92691 84.5282 3.08591C84.1691 3.40968 83.7028 3.58888 83.2193 3.58888C82.7358 3.58888 82.2695 3.40968 81.9104 3.08591ZM84.6884 4.99231V16.7992H81.7054V4.99231H84.6884Z" fill="white"/>
<path id="Vector_7" d="M91.7437 7.44333V13.1529C91.729 13.3092 91.7471 13.4669 91.7968 13.6158C91.8464 13.7648 91.9265 13.9017 92.032 14.018C92.31 14.2195 92.6513 14.3139 92.9932 14.2839H94.3774V16.7991H92.503C89.9889 16.7991 88.7319 15.5773 88.7319 13.1337V7.44333H87.3253V4.99224H88.7319V2.07336H91.734V4.99224H94.3774V7.44333H91.7437Z" fill="white"/>
<path id="Vector_8" d="M108.472 4.99219L101.164 22.3805H97.9885L100.552 16.5011L95.813 4.99219H99.1612L102.208 13.2298L105.3 4.99219H108.472Z" fill="white"/>
<path id="Vector_9" d="M7.84288 14.8318V18.7888C7.84552 19.2742 7.70544 19.7498 7.44006 20.1562C7.17468 20.5627 6.7957 20.8823 6.35022 21.0751C5.90474 21.268 5.4124 21.3257 4.93439 21.2411C4.45638 21.1564 4.01379 20.9332 3.66161 20.5991L1.48927 18.5773V8.00403L7.84288 14.8318Z" stroke="url(#paint0_linear_41_29)" stroke-width="1.92242" stroke-linecap="round" stroke-linejoin="round"/>
<path id="Vector_10" d="M18.0092 7.99757C18.0092 11.4387 15.8081 14.3448 11.4986 14.7837L5.01367 7.95271L12.0625 1.18579C16.0003 1.76893 18.0092 4.40905 18.0092 7.99757Z" stroke="url(#paint1_linear_41_29)" stroke-width="1.92242" stroke-linecap="round" stroke-linejoin="round"/>
<path id="Vector_11" d="M8.21769 1.05444C5.6801 3.61767 2.02109 7.32154 1.48922 7.85982V2.35528C1.48667 2.18537 1.51794 2.01664 1.5812 1.85892C1.64447 1.70121 1.73847 1.55764 1.85773 1.43659C1.97699 1.31554 2.11914 1.21941 2.2759 1.15381C2.43266 1.0882 2.6009 1.05442 2.77083 1.05444H8.21769Z" stroke="url(#paint2_linear_41_29)" stroke-width="1.92242" stroke-linecap="round" stroke-linejoin="round"/>
</g>
</g>
</g>
<defs>
<linearGradient id="paint0_linear_41_29" x1="0.528062" y1="14.6332" x2="8.80409" y2="14.6332" gradientUnits="userSpaceOnUse">
<stop stop-color="#1A863E"/>
<stop offset="0.84" stop-color="#1A863E"/>
</linearGradient>
<linearGradient id="paint1_linear_41_29" x1="4.05887" y1="7.98475" x2="18.9705" y2="7.98475" gradientUnits="userSpaceOnUse">
<stop stop-color="#1A863E"/>
<stop offset="0.84" stop-color="#1A863E"/>
</linearGradient>
<linearGradient id="paint2_linear_41_29" x1="0.528008" y1="4.46354" x2="9.18852" y2="4.46354" gradientUnits="userSpaceOnUse">
<stop stop-color="#1A863E"/>
<stop offset="0.84" stop-color="#1A863E"/>
</linearGradient>
<clipPath id="clip0_41_29">
<rect width="107.944" height="22.2873" fill="white" transform="translate(0.528076 0.0932617)"/>
</clipPath>
</defs>
</svg>
