<svg width="41" height="40" viewBox="0 0 41 40" fill="none" xmlns="http://www.w3.org/2000/svg">
<g id="SVG">
<g id="Group">
<path id="Vector" fill-rule="evenodd" clip-rule="evenodd" d="M16.6357 4.58645C16.3397 4.72016 16.3218 4.73362 15.9674 5.0877C15.5647 5.48994 15.3996 5.95792 15.4467 6.56322C15.4679 6.83541 15.542 7.12221 15.639 7.30804C15.6681 7.36381 15.6921 7.43636 15.6922 7.46921C15.6923 7.50206 15.7435 7.5983 15.8059 7.68304C15.8682 7.76778 15.928 7.88522 15.9387 7.94408C15.9494 8.00289 15.9894 8.07978 16.0277 8.1149C16.0659 8.15006 16.1231 8.22926 16.1547 8.29096C16.1863 8.35266 16.2555 8.44936 16.3084 8.50583C16.3614 8.5623 16.448 8.68281 16.5009 8.77359C16.5539 8.86441 16.6547 8.99273 16.7251 9.05882C16.7955 9.12487 16.936 9.29142 17.0374 9.42894C17.1389 9.56646 17.2632 9.72409 17.3138 9.77925C17.3643 9.83441 17.4317 9.9203 17.4634 9.97008C17.4952 10.0199 17.5675 10.1089 17.6241 10.1679C17.6807 10.2269 17.7214 10.2752 17.7145 10.2752C17.7077 10.2752 17.7539 10.3307 17.8174 10.3985C17.8808 10.4664 17.9865 10.6005 18.0523 10.6966C18.1181 10.7928 18.1945 10.8943 18.2219 10.9222C18.2494 10.9502 18.2719 10.9966 18.2719 11.0254C18.2719 11.0542 18.3028 11.0876 18.3406 11.0996C18.3784 11.1116 18.4395 11.1724 18.4764 11.2349C18.5133 11.2973 18.595 11.3999 18.6579 11.4628C18.7209 11.5256 18.7724 11.6026 18.7724 11.6337C18.7724 11.6648 18.7985 11.7002 18.8305 11.7125C18.8624 11.7247 18.9096 11.7828 18.9353 11.8416C18.9809 11.9457 19.3403 12.3972 19.398 12.4229C19.4139 12.4299 19.4269 12.4576 19.4269 12.4845C19.4269 12.5113 19.4789 12.5876 19.5424 12.654C19.6059 12.7204 19.6579 12.7904 19.6579 12.8096C19.6579 12.8288 19.7185 12.8977 19.7926 12.9627C19.8668 13.0277 19.9274 13.0912 19.9274 13.1038C19.9274 13.1165 19.9695 13.1819 20.0209 13.2493C20.0723 13.3166 20.1113 13.3834 20.1075 13.3976C20.0998 13.4268 20.305 13.7192 20.3816 13.7883C20.4091 13.813 20.4524 13.8562 20.4779 13.8842C20.5033 13.9121 20.5545 13.9684 20.5915 14.0092C20.6285 14.0499 20.6592 14.105 20.6595 14.1314C20.6599 14.1579 20.7062 14.2228 20.7623 14.2757C20.8184 14.3285 20.9106 14.4444 20.9671 14.5331C21.0812 14.7119 21.0907 14.7229 21.571 15.23C21.7575 15.4269 21.9315 15.6382 21.9577 15.6995C21.9838 15.7608 22.0401 15.8296 22.0828 15.8525C22.1254 15.8753 22.1608 15.915 22.1613 15.9407C22.1622 15.9879 22.2578 16.1146 22.5115 16.4049C22.5881 16.4926 22.6629 16.6034 22.6777 16.6509C22.6925 16.6985 22.7181 16.7375 22.7347 16.7375C22.7513 16.7375 22.8136 16.8522 22.8733 16.9924C23.0055 17.3034 23.0229 17.6526 22.9122 17.7748C22.8077 17.8903 22.6058 17.9152 22.4778 17.8285C22.4197 17.7891 22.3514 17.7482 22.3261 17.7376C22.2482 17.7051 21.7369 17.268 21.7369 17.2339C21.7369 17.2163 21.6365 17.0931 21.5138 16.9601C21.3911 16.8271 21.2309 16.6404 21.1577 16.5452C21.0846 16.45 20.9956 16.3461 20.9601 16.3144C20.9246 16.2826 20.771 16.1095 20.6187 15.9297C20.4665 15.7499 20.2901 15.5513 20.2269 15.4885C20.1637 15.4257 20.0636 15.3045 20.0045 15.2193C19.9455 15.134 19.8563 15.0269 19.8064 14.9813C19.7565 14.9357 19.6637 14.8347 19.6001 14.7569C19.5366 14.679 19.4415 14.5692 19.3888 14.5128C19.3361 14.4564 19.2266 14.3324 19.1454 14.2372C19.0643 14.142 18.8995 13.954 18.7793 13.8196C18.659 13.6851 18.5458 13.5491 18.5276 13.5173C18.5094 13.4856 18.4089 13.3723 18.3043 13.2656C18.1997 13.1588 18.092 13.0401 18.0651 13.0017C18.0383 12.9634 17.945 12.8491 17.8579 12.7479C17.7709 12.6467 17.5269 12.3562 17.3158 12.1023C17.1047 11.8485 16.8837 11.5888 16.8246 11.5253C16.6578 11.346 16.1494 10.7529 16.0077 10.5723C15.9376 10.4829 15.8074 10.3319 15.7183 10.2367C15.6293 10.1415 15.5283 10.0204 15.4938 9.96746C15.4405 9.88561 15.2394 9.6457 14.4938 8.77502C14.3847 8.64754 14.3449 8.59861 14.114 8.308C14.061 8.24138 13.9701 8.14225 13.9118 8.08771C13.8536 8.0332 13.806 7.97216 13.806 7.95208C13.806 7.93204 13.689 7.79421 13.5461 7.64581C13.1511 7.23565 13.0314 7.12421 12.8531 7.00023C12.7631 6.93769 12.6895 6.86918 12.6895 6.84799C12.6895 6.82683 12.6243 6.78005 12.5446 6.74405C12.465 6.70805 12.348 6.64208 12.2847 6.59742C12.2215 6.55272 12.1043 6.50425 12.0244 6.48968C11.9444 6.4751 11.7452 6.41928 11.5816 6.36562C11.2446 6.25503 10.9504 6.26246 10.6695 6.38862C10.5841 6.42697 10.4536 6.47121 10.3795 6.4869C10.3054 6.50264 10.1958 6.55653 10.1359 6.60665C10.0761 6.65681 10.0114 6.69785 9.99214 6.69785C9.92219 6.69785 9.59783 7.06963 9.44803 7.3215C9.31251 7.54938 9.29195 7.61646 9.27301 7.89199C9.24437 8.30981 9.32371 8.81491 9.44352 8.97712C9.49338 9.04467 9.55175 9.1651 9.57323 9.24473C9.61712 9.40763 9.82825 9.77571 9.97462 9.94462C10.028 10.0061 10.0715 10.0729 10.0715 10.0932C10.0715 10.1303 10.3022 10.4066 10.6271 10.7586C10.7234 10.863 10.8024 10.9611 10.8026 10.9767C10.803 11.0032 10.9982 11.2197 11.3613 11.5964C11.446 11.6842 11.5781 11.8343 11.6549 11.9299C11.7316 12.0254 11.8962 12.2107 12.0206 12.3415C12.332 12.6691 12.6573 13.036 12.7243 13.1352C12.755 13.1806 12.84 13.2871 12.9133 13.3717C12.9866 13.4563 13.1178 13.6081 13.2049 13.7089C13.292 13.8098 13.4412 13.9761 13.5365 14.0785C13.6318 14.181 13.8036 14.3754 13.9184 14.5106C14.0332 14.6459 14.1458 14.7738 14.1687 14.7949C14.1915 14.8161 14.2957 14.9373 14.4003 15.0642C14.5648 15.2642 14.7306 15.4469 14.9139 15.6304C14.9409 15.6575 15.0275 15.7485 15.1064 15.8326C15.1852 15.9168 15.3854 16.1266 15.5512 16.2989C15.7171 16.4711 15.8836 16.6619 15.9214 16.7229C15.9592 16.7838 16.0314 16.8703 16.0819 16.9152C16.1324 16.9601 16.2343 17.0702 16.3084 17.1599C16.3826 17.2496 16.4909 17.3743 16.5491 17.4371C16.6073 17.4998 16.6549 17.5662 16.6549 17.5845C16.6549 17.6029 16.7069 17.6485 16.7704 17.686C16.834 17.7235 16.8859 17.7733 16.8859 17.7966C16.8859 17.82 16.9393 17.8985 17.0046 17.9711C17.0699 18.0436 17.2215 18.215 17.3415 18.352C17.4615 18.4889 17.6593 18.7039 17.781 18.8297C17.9028 18.9554 18.0024 19.0713 18.0024 19.0872C18.0024 19.103 18.102 19.2214 18.2238 19.3502C18.5579 19.7036 18.9059 20.0834 19.0691 20.2726C19.1494 20.3658 19.2888 20.5234 19.3788 20.6228C19.4687 20.7223 19.5424 20.8158 19.5424 20.8308C19.5424 20.8457 19.601 20.9347 19.6727 21.0284C19.8474 21.257 20.0204 21.6691 19.991 21.7863C19.9783 21.8366 19.9313 21.9199 19.8865 21.9714C19.8161 22.0524 19.7749 22.0641 19.5816 22.0585C19.3121 22.0506 19.2033 21.9974 18.9264 21.7382C18.8099 21.6292 18.6843 21.5233 18.6473 21.503C18.6102 21.4827 18.5799 21.4471 18.5799 21.4239C18.5799 21.4006 18.4781 21.2844 18.3537 21.1656C18.2293 21.0468 18.0238 20.8283 17.8969 20.6803C17.7701 20.5322 17.5038 20.2364 17.305 20.0229C17.1063 19.8095 16.9146 19.6018 16.879 19.5614C16.8435 19.5209 16.7915 19.4673 16.7635 19.4423C16.7356 19.4173 16.6087 19.2814 16.4817 19.1405C16.3546 18.9995 16.1177 18.7499 15.9551 18.5859C15.7925 18.4218 15.5407 18.1508 15.3954 17.9837C15.2501 17.8166 15.014 17.561 14.8707 17.4156C14.7273 17.2702 14.5112 17.0366 14.3903 16.8963C14.2694 16.7561 13.9693 16.4336 13.7234 16.1797C13.4774 15.9259 13.1745 15.6095 13.0502 15.4766C12.9259 15.3438 12.6856 15.0924 12.5162 14.918C12.3468 14.7436 12.0259 14.4108 11.803 14.1786C11.381 13.7388 10.9959 13.3826 10.8563 13.3029C10.8115 13.2772 10.6515 13.1727 10.5007 13.0705C10.2524 12.9021 10.0225 12.7935 9.70925 12.6966C9.50235 12.6326 8.93729 12.6101 8.67631 12.6555C8.08769 12.7579 7.65176 13.0829 7.38746 13.6163L7.24182 13.9102L7.24274 14.4488C7.24363 14.96 7.29429 15.2758 7.37537 15.2758C7.41406 15.2758 7.53056 15.5597 7.53056 15.654C7.53056 15.6919 7.58254 15.7727 7.64606 15.8335C7.70958 15.8943 7.76156 15.9642 7.76156 15.9889C7.76156 16.0135 7.81496 16.0925 7.88025 16.1644C8.00076 16.2972 9.40506 17.7498 9.9849 18.3414C10.1596 18.5197 10.3025 18.6706 10.3025 18.6766C10.3025 18.6891 10.643 19.0619 10.9474 19.3827C11.0585 19.4998 11.1495 19.6082 11.1495 19.6234C11.1495 19.6387 11.2392 19.7356 11.3488 19.8388C11.4584 19.9419 11.6013 20.0858 11.6664 20.1585C11.7315 20.2312 11.8688 20.3697 11.9716 20.4662C12.0744 20.5628 12.1784 20.6639 12.2026 20.6909C12.3986 20.909 12.5948 21.1034 12.6188 21.1034C12.6348 21.1034 12.6878 21.1576 12.7368 21.2238C12.8351 21.3569 13.278 21.8209 13.5158 22.0399C13.5998 22.1172 13.7124 22.2315 13.7661 22.294C14.0053 22.5722 14.4108 22.9925 14.9995 23.5726C15.708 24.2709 15.756 24.3153 15.8014 24.3153C15.819 24.3153 15.8566 24.3586 15.8849 24.4115C15.9133 24.4643 15.9502 24.5076 15.9669 24.5076C15.9836 24.5076 16.0456 24.5514 16.1047 24.6049C16.1638 24.6584 16.3508 24.8165 16.5202 24.9564C16.8318 25.2138 17.1494 25.5314 17.2902 25.7266C17.3325 25.7853 17.4036 25.8709 17.4482 25.9167C17.4928 25.9626 17.5399 26.0278 17.5529 26.0616C17.5659 26.0955 17.5938 26.1232 17.615 26.1232C17.6362 26.1232 17.6435 26.1492 17.6314 26.1809C17.6177 26.2164 17.6314 26.2386 17.6669 26.2386C17.737 26.2386 17.7611 26.296 17.7935 26.5405C17.8181 26.7256 17.775 26.876 17.679 26.94C17.5228 27.0442 17.0503 26.8931 16.7867 26.6546C16.7091 26.5845 16.5395 26.4303 16.4097 26.3119C16.2799 26.1936 16.0524 25.9872 15.9042 25.8531C15.756 25.7191 15.4961 25.4763 15.3267 25.3135C15.0482 25.0458 14.8354 24.8519 13.7707 23.8949C13.5925 23.7347 13.3444 23.5041 13.2194 23.3825C13.0945 23.2609 12.9808 23.1613 12.9668 23.1613C12.9529 23.1613 12.8793 23.0964 12.8034 23.0171C12.5881 22.7921 12.1509 22.3936 11.8643 22.1612C11.7208 22.0448 11.5675 21.9107 11.5235 21.8631C11.4796 21.8155 11.4215 21.7765 11.3944 21.7765C11.3673 21.7765 11.3054 21.7353 11.2569 21.6848C11.2085 21.6344 11.0995 21.5717 11.0148 21.5455C10.9301 21.5194 10.8175 21.4587 10.7645 21.4107C10.6408 21.2985 10.0567 21.1611 9.70347 21.1611C9.01849 21.1611 8.39164 21.5332 8.06932 22.1313C7.83602 22.5641 7.87567 23.0238 8.20246 23.6751C8.39911 24.0671 8.48011 24.1881 8.75292 24.4973C8.82172 24.5752 8.87804 24.6614 8.87804 24.6887C8.87804 24.7161 8.89776 24.7384 8.92186 24.7384C8.94596 24.7384 9.07154 24.8467 9.20098 24.979C9.33041 25.1114 9.49939 25.2745 9.5765 25.3416C9.65362 25.4087 9.72291 25.4782 9.7305 25.496C9.73808 25.5138 9.79626 25.5684 9.85978 25.6172C9.9233 25.6661 10.1052 25.8283 10.264 25.9777C11.1519 26.8131 11.3251 26.9694 11.3632 26.9694C11.376 26.9694 11.5627 27.1415 11.7781 27.3518C12.2203 27.7835 12.2655 27.8258 12.4655 27.9938C12.5443 28.0601 12.5981 28.125 12.585 28.1381C12.5719 28.1512 12.5828 28.1619 12.6094 28.1619C12.6567 28.1619 12.7315 28.2249 13.1272 28.5985C13.3399 28.7993 13.4421 28.8909 13.8852 29.2773C14.0428 29.4148 14.2793 29.6355 14.4108 29.7678C14.5423 29.9 14.6641 30.0083 14.6813 30.0083C14.6987 30.0083 14.7563 30.0558 14.8093 30.114C14.8624 30.1722 14.9817 30.2804 15.0743 30.3545C15.167 30.4285 15.2862 30.5367 15.3392 30.5949C15.3923 30.6531 15.4588 30.7006 15.4871 30.7006C15.5153 30.7006 15.5385 30.7266 15.5385 30.7583C15.5385 30.7901 15.5558 30.816 15.577 30.816C15.5981 30.816 15.6471 30.8463 15.6859 30.8834C15.7246 30.9204 15.8728 31.0459 16.0152 31.1622C16.2893 31.3863 16.5677 31.6236 16.963 31.97C17.0958 32.0864 17.2237 32.1883 17.2473 32.1965C17.2709 32.2047 17.3172 32.2393 17.3502 32.2734C17.3832 32.3075 17.4851 32.396 17.5768 32.4701C17.6684 32.5441 17.7887 32.6459 17.844 32.6963C18.0666 32.8987 18.5716 33.3163 18.5937 33.3163C18.6067 33.3163 18.7015 33.3986 18.8042 33.4991C19.093 33.7816 19.3578 34.0087 19.3984 34.0087C19.4187 34.0087 19.4785 34.0477 19.5312 34.0953C19.584 34.1429 19.6559 34.2078 19.6909 34.2395C19.7258 34.2713 19.8584 34.3801 19.9853 34.4815C20.3597 34.7803 20.5085 34.9073 20.5954 35.0018C20.6404 35.0508 20.7294 35.1156 20.7933 35.1459C20.8571 35.1762 20.9959 35.2795 21.1017 35.3756C21.2075 35.4717 21.3461 35.575 21.4096 35.6053C21.4731 35.6356 21.6291 35.7379 21.7561 35.8326C21.959 35.9838 22.1488 36.1065 22.5053 36.3167C22.5591 36.3484 22.6923 36.4294 22.8014 36.4967C23.0373 36.6422 23.2939 36.7621 23.4514 36.8004C23.5142 36.8157 23.5998 36.8516 23.6416 36.8802C23.6833 36.9088 23.7559 36.9321 23.8029 36.9321C23.8499 36.9321 23.8982 36.9481 23.9103 36.9677C23.9309 37.001 24.2143 37.107 24.3774 37.1424C24.4179 37.1512 24.5464 37.1839 24.6628 37.215C25.027 37.3123 26.0133 37.4322 26.4492 37.4322C26.8873 37.4322 27.5384 37.3524 27.8968 37.2548C28.0132 37.223 28.2188 37.1726 28.3535 37.1426C28.4882 37.1127 28.6225 37.0683 28.6519 37.0439C28.6812 37.0196 28.7053 37.0114 28.7053 37.0258C28.7053 37.0505 28.8955 36.9566 29.0075 36.8765C29.0361 36.8561 29.0807 36.8362 29.1066 36.8324C29.1325 36.8286 29.3392 36.737 29.566 36.6288C29.7928 36.5206 29.9951 36.4321 30.0155 36.4321C30.036 36.4321 30.0528 36.4168 30.0528 36.398C30.0528 36.3793 30.1524 36.3129 30.2741 36.2504C30.3959 36.188 30.6213 36.0562 30.775 35.9575C30.9287 35.8589 31.0702 35.7782 31.0894 35.7782C31.1086 35.7782 31.1301 35.7652 31.1372 35.7493C31.1521 35.7157 31.464 35.5089 31.4999 35.5089C31.5132 35.5089 31.5612 35.475 31.6066 35.4336C31.7741 35.2805 32.2674 34.8935 32.295 34.8935C32.3305 34.8934 32.4991 34.7544 32.6301 34.6173C32.6842 34.5607 32.7503 34.5088 32.7771 34.5019C32.8038 34.4951 32.9337 34.3902 33.0658 34.2688C33.1979 34.1474 33.3281 34.0478 33.3553 34.0476C33.3824 34.0474 33.4583 33.986 33.5241 33.9111C33.5899 33.8363 33.7409 33.7122 33.8598 33.6353C33.9787 33.5585 34.1131 33.4596 34.1586 33.4156C34.3376 33.2423 34.4779 33.1206 34.4974 33.1219C34.5086 33.1226 34.5916 33.0412 34.6819 32.9409C34.7721 32.8406 34.8795 32.7337 34.9206 32.7032C34.9617 32.6728 35.0266 32.6165 35.065 32.5782C35.1033 32.5399 35.1502 32.5086 35.1691 32.5086C35.188 32.5086 35.2138 32.4815 35.2265 32.4484C35.2392 32.4153 35.2671 32.399 35.2884 32.4122C35.3097 32.4254 35.3272 32.4005 35.3272 32.357C35.3272 32.3122 35.3523 32.2778 35.3849 32.2778C35.4167 32.2778 35.4427 32.2604 35.4427 32.2393C35.4427 32.2181 35.4592 32.2008 35.4793 32.2008C35.5333 32.2008 35.7892 31.9279 35.7892 31.8703C35.7892 31.8432 35.8411 31.764 35.9047 31.6946C35.9682 31.6251 36.0202 31.5554 36.0202 31.5397C36.0202 31.524 36.0697 31.4542 36.1302 31.3848C36.1906 31.3153 36.2604 31.1962 36.2852 31.1201C36.3102 31.0432 36.3725 30.9592 36.4254 30.9309C36.4933 30.8946 36.5207 30.8478 36.5207 30.7677C36.5207 30.706 36.5712 30.5835 36.633 30.4954C36.6948 30.4073 36.7576 30.2579 36.7726 30.1634C36.7875 30.0689 36.8409 29.9264 36.8912 29.8468C36.9415 29.7672 36.9827 29.6676 36.9827 29.6256C36.9827 29.5835 37.024 29.4225 37.0746 29.2678C37.1653 28.99 37.1854 28.8605 37.3159 27.7101C37.3789 27.1557 37.3789 27.079 37.3168 26.3061C37.2806 25.8564 37.2325 25.2462 37.2098 24.95C37.1871 24.6538 37.1534 24.3336 37.135 24.2384C37.1166 24.1432 37.0728 23.7018 37.0377 23.2575C37.0026 22.8132 36.9512 22.3978 36.9234 22.3343C36.8647 22.2 36.7517 21.4772 36.7517 21.236C36.7517 21.1451 36.7079 20.9441 36.6544 20.7893C36.601 20.6346 36.5413 20.3476 36.5218 20.1517C36.4979 19.9114 36.4574 19.7392 36.3976 19.6224C36.3122 19.4556 36.3089 19.4151 36.3089 18.5069C36.3089 17.5792 36.3105 17.56 36.4131 17.276C36.4877 17.0694 36.5194 16.9025 36.5246 16.6882C36.5287 16.5235 36.5456 16.3804 36.5623 16.3701C36.5995 16.3471 36.6967 16.0101 36.7336 15.7758C36.7486 15.6806 36.7935 15.5385 36.8333 15.46C36.8731 15.3815 36.9057 15.2852 36.9057 15.2461C36.9057 15.2069 36.9422 15.098 36.9869 15.0041C37.294 14.3586 37.3642 14.2036 37.4007 14.0911C37.4234 14.0214 37.4772 13.9195 37.5203 13.8648C37.5634 13.81 37.5986 13.7451 37.5986 13.7206C37.5986 13.696 37.6588 13.5815 37.7324 13.4661C37.806 13.3507 37.8666 13.2284 37.8671 13.1943C37.8677 13.1602 37.9201 13.0669 37.9836 12.987C38.0472 12.9072 38.0991 12.8208 38.0991 12.7952C38.0991 12.7696 38.149 12.6799 38.2098 12.5959C38.2707 12.5119 38.3332 12.4011 38.3487 12.3497C38.3642 12.2983 38.4255 12.1783 38.485 12.0831C38.6259 11.8573 38.6734 11.4725 38.586 11.2636C38.5533 11.1854 38.5113 11.1214 38.4926 11.1214C38.4739 11.1214 38.4343 11.0739 38.4046 11.0157C38.3266 10.8632 38.0958 10.6371 37.9836 10.6033C37.9307 10.5873 37.8441 10.5358 37.7911 10.4888C37.654 10.3671 37.1363 10.1958 36.7424 10.1418C36.2449 10.0736 35.6368 10.1261 35.2086 10.2742C35.0235 10.3382 34.8471 10.3906 34.8166 10.3906C34.7861 10.3906 34.7067 10.4425 34.6402 10.506C34.5738 10.5695 34.4859 10.6214 34.445 10.6214C34.4041 10.6214 34.3216 10.6621 34.2618 10.7118C34.2019 10.7616 34.1096 10.8248 34.0567 10.8522C33.9378 10.9138 33.8939 10.9527 33.452 11.3865C33.2571 11.5779 33.0669 11.7827 33.0294 11.8415C32.992 11.9003 32.9391 11.9624 32.912 11.9794C32.8849 11.9964 32.8258 12.0829 32.7807 12.1717C32.7356 12.2605 32.6664 12.3744 32.6269 12.4249C32.5875 12.4753 32.5552 12.5516 32.5552 12.5943C32.5552 12.6371 32.5141 12.7259 32.4639 12.7917C32.4136 12.8575 32.3596 12.989 32.3438 13.0838C32.328 13.1787 32.2917 13.3022 32.263 13.3582C32.1636 13.5523 32.1342 13.8051 32.1159 14.625C32.1031 15.1991 32.0796 15.513 32.0383 15.6604C32.0058 15.7768 31.9506 15.9932 31.9158 16.1413C31.881 16.2894 31.8227 16.4538 31.7863 16.5067C31.7498 16.5596 31.6999 16.6622 31.6752 16.7347C31.5608 17.0717 31.0845 17.6322 30.866 17.687C30.8119 17.7006 30.7331 17.7438 30.6909 17.783C30.4824 17.9771 29.7859 17.9727 29.3718 17.7746C29.2408 17.7119 29.1195 17.6606 29.1023 17.6606C28.9938 17.6602 28.5284 17.2657 28.0315 16.7528C27.3287 16.0272 27.2324 15.9194 26.5925 15.1411C26.3142 14.8026 26.0304 14.4596 25.9618 14.3789C25.8932 14.2982 25.8254 14.2008 25.8112 14.1625C25.7969 14.1241 25.7407 14.0482 25.6861 13.9937C25.6315 13.9391 25.5868 13.8776 25.5868 13.8569C25.5868 13.8362 25.5549 13.8091 25.516 13.7968C25.477 13.7844 25.421 13.727 25.3916 13.6692C25.333 13.5543 25.0834 13.2252 25.0399 13.2056C25.0054 13.19 24.7398 12.8219 24.7398 12.7897C24.7398 12.7764 24.6835 12.6997 24.6147 12.6191C24.3423 12.3002 24.2574 12.1886 24.2285 12.1116C24.199 12.0331 24.1661 11.9926 23.9385 11.7557C23.8774 11.6919 23.7969 11.581 23.7597 11.5092C23.7226 11.4374 23.677 11.3598 23.6586 11.3366C23.6402 11.3135 23.5597 11.2138 23.4799 11.1152C23.4 11.0165 23.274 10.8477 23.1998 10.7401C23.1257 10.6324 22.9785 10.4244 22.8726 10.2778C22.7667 10.1312 22.6195 9.92231 22.5454 9.81356C22.4712 9.70478 22.3789 9.58673 22.3401 9.55122C22.3013 9.51568 22.2365 9.42267 22.196 9.34447C22.1555 9.26627 22.0997 9.18837 22.0719 9.17137C22.0441 9.15437 21.982 9.07555 21.9338 8.9962C21.8855 8.91688 21.8322 8.85195 21.8151 8.85195C21.7981 8.85195 21.7552 8.79571 21.7198 8.72694C21.6488 8.58896 21.556 8.45617 21.3495 8.19699C21.2741 8.10236 21.1804 7.973 21.1411 7.90953C21.1019 7.84606 20.9795 7.69028 20.8692 7.56334C20.7589 7.4364 20.631 7.25815 20.585 7.16718C20.539 7.07624 20.4774 6.99262 20.4481 6.98138C20.4188 6.97015 20.3771 6.91042 20.3556 6.84864C20.334 6.78686 20.2984 6.73632 20.2764 6.73632C20.2544 6.73632 20.1953 6.67143 20.145 6.59207C19.9357 6.26134 18.9352 5.22107 18.6337 5.02058C18.5256 4.94873 18.4183 4.88995 18.3952 4.88995C18.3722 4.88995 18.3304 4.85721 18.3023 4.81725C18.2743 4.77724 18.113 4.6887 17.944 4.62046C17.6925 4.51891 17.5703 4.49352 17.2709 4.48056C16.9257 4.46559 16.8901 4.47152 16.6357 4.58645Z" fill="url(#paint0_linear_1_37)"/>
</g>
<g id="Group_2">
<path id="Vector_2" d="M30.9396 30.6839C31.8064 30.6839 32.509 28.4354 32.509 25.6618C32.509 22.8881 31.8064 20.6396 30.9396 20.6396C30.0728 20.6396 29.3702 22.8881 29.3702 25.6618C29.3702 28.4354 30.0728 30.6839 30.9396 30.6839Z" fill="#FFF9EB"/>
</g>
<g id="Group_3">
<path id="Vector_3" d="M26.6101 32.8943C27.1253 32.1973 25.7349 30.2956 23.5045 28.6469C21.2741 26.9981 19.0484 26.2265 18.5331 26.9235C18.0179 27.6205 19.4083 29.5221 21.6387 31.1709C23.869 32.8197 26.0948 33.5912 26.6101 32.8943Z" fill="#FFF9EB"/>
</g>
<g id="Group_4">
<path id="Vector_4" d="M19.8943 25.2781C20.3881 25.662 22.108 24.2757 23.7358 22.1816C25.3636 20.0876 26.2829 18.0789 25.7891 17.6951C25.2952 17.3112 23.5754 18.6975 21.9476 20.7915C20.3198 22.8855 19.4005 24.8943 19.8943 25.2781Z" fill="#FFF9EB"/>
</g>
<path id="Vector_5" d="M6.28321 24.4966H6.0993C5.76838 24.4966 5.55126 24.8424 5.70202 25.137C6.99923 27.6717 8.2451 28.9221 10.6998 30.236C10.9947 30.3939 11.3475 30.177 11.3475 29.8425V29.7648C11.3475 29.6025 11.2598 29.4529 11.1192 29.3718C8.82926 28.0507 7.79267 26.9833 6.69098 24.7521C6.61424 24.5967 6.45656 24.4966 6.28321 24.4966Z" fill="#6E6E6E"/>
<path id="Vector_6" d="M3.59233 25.509H3.36662C3.03008 25.509 2.81334 25.8654 2.9735 26.1614C4.71122 29.3729 6.29833 30.914 9.39635 32.7314C9.66211 32.8873 10.0012 32.7314 10.0589 32.4287L10.107 32.1759C10.1426 31.989 10.0561 31.7999 9.89286 31.7023C6.73987 29.819 5.40446 28.4376 3.99411 25.7534C3.9156 25.604 3.76114 25.509 3.59233 25.509Z" fill="#6E6E6E"/>
<path id="Vector_7" d="M25.9318 10.7262C25.2362 8.38391 24.3986 7.12557 22.2715 5.39691C22.1293 5.28139 22.0719 5.09004 22.1298 4.91626C22.222 4.63974 22.5549 4.52993 22.7895 4.70291C25.0504 6.37007 26.0333 7.79482 26.9562 10.4688C27.0558 10.7573 26.8389 11.0548 26.5337 11.0548H26.3677C26.166 11.0548 25.9892 10.9196 25.9318 10.7262Z" fill="#6E6E6E"/>
<path id="Vector_8" d="M23.773 2.77372L23.8438 2.58155C23.9495 2.2946 24.3054 2.19499 24.542 2.38878C27.1947 4.56187 28.4739 6.36237 29.8909 9.88065C30.009 10.1738 29.7919 10.4925 29.4759 10.4925H29.2123C29.0219 10.4925 28.8525 10.3726 28.7871 10.1939C27.7063 7.24335 26.6285 5.62677 23.9036 3.27349C23.7607 3.15011 23.7078 2.95085 23.773 2.77372Z" fill="#6E6E6E"/>
</g>
<defs>
<linearGradient id="paint0_linear_1_37" x1="26.4671" y1="38.6877" x2="20.7387" y2="8.94743" gradientUnits="userSpaceOnUse">
<stop stop-color="#FF8B49"/>
<stop offset="1" stop-color="#FFCF49"/>
</linearGradient>
</defs>
</svg>
