<svg width="35" height="12" viewBox="0 0 35 12" fill="none" xmlns="http://www.w3.org/2000/svg">
<path id="Vector" d="M1.09814 5.25003C0.683935 5.25003 0.348145 5.58583 0.348145 6.00003C0.348145 6.41423 0.683935 6.75003 1.09814 6.75003V5.25003ZM34.6284 6.53033C34.9213 6.23743 34.9213 5.76263 34.6284 5.46973L29.8555 0.696726C29.5626 0.403826 29.0877 0.403826 28.7948 0.696726C28.5019 0.989626 28.5019 1.46453 28.7948 1.75743L33.0374 6.00003L28.7948 10.2426C28.5019 10.5355 28.5019 11.0104 28.7948 11.3033C29.0877 11.5962 29.5626 11.5962 29.8555 11.3033L34.6284 6.53033ZM1.09814 6.75003H34.0981V5.25003H1.09814V6.75003Z" fill="#2D47ED"/>
</svg>
